<svg xmlns="http://www.w3.org/2000/svg" width="992" height="668" viewBox="0 0 992 668"><rect width="992" height="668" fill="#0b0b0d"/><rect x="16" y="16" width="150" height="150" rx="8" fill="#141318" stroke="#2a2832"/><svg x="16" y="16" width="150" height="150" viewBox="0 0 100 100"><circle cx="50" cy="50" r="46.5" fill="none" stroke="hsl(4 60% 55%)" stroke-width="0.8" opacity="0.3"/><polygon points="26.6,64.9 28.5,46.1 45.9,24.9 63.8,27.0 69.5,52.5 48.2,67.8" fill="hsl(4 60% 52% / 0.16)" stroke="hsl(4 74% 66%)" stroke-width="1.4" stroke-linejoin="round"/><line x1="26.6" y1="64.9" x2="69.5" y2="52.5" stroke="hsl(44 66% 56%)" stroke-width="0.8" opacity="0.7"/><line x1="28.5" y1="46.1" x2="48.2" y2="67.8" stroke="hsl(4 74% 66%)" stroke-width="0.8" opacity="0.7"/><line x1="45.9" y1="24.9" x2="26.6" y2="64.9" stroke="hsl(4 74% 66%)" stroke-width="0.8" opacity="0.7"/><line x1="63.8" y1="27.0" x2="28.5" y2="46.1" stroke="hsl(44 66% 56%)" stroke-width="0.8" opacity="0.7"/><line x1="69.5" y1="52.5" x2="45.9" y2="24.9" stroke="hsl(44 66% 56%)" stroke-width="0.8" opacity="0.7"/><line x1="48.2" y1="67.8" x2="63.8" y2="27.0" stroke="hsl(316 62% 68%)" stroke-width="0.8" opacity="0.7"/><circle cx="26.6" cy="64.9" r="3.1" fill="hsl(316 62% 68%)"/><circle cx="28.5" cy="46.1" r="2.1" fill="hsl(4 74% 66%)"/><circle cx="45.9" cy="24.9" r="1.6" fill="hsl(4 74% 66%)"/><circle cx="63.8" cy="27.0" r="3.2" fill="hsl(44 66% 56%)"/><circle cx="69.5" cy="52.5" r="2.4" fill="hsl(316 62% 68%)"/><circle cx="48.2" cy="67.8" r="2.2" fill="hsl(44 66% 56%)"/><circle cx="45.2" cy="47.5" r="4" fill="hsl(44 74% 82%)"/></svg><rect x="178" y="16" width="150" height="150" rx="8" fill="#141318" stroke="#2a2832"/><svg x="178" y="16" width="150" height="150" viewBox="0 0 100 100"><circle cx="50" cy="50" r="46.5" fill="none" stroke="hsl(29 60% 55%)" stroke-width="0.8" opacity="0.3"/><polygon points="12.4,45.9 26.5,27.3 37.7,16.3 63.0,11.7 70.9,29.0 81.8,45.4 84.6,69.5 62.6,75.1 51.6,88.2 32.6,75.5 32.5,60.5" fill="hsl(29 60% 52% / 0.16)" stroke="hsl(29 74% 66%)" stroke-width="1.4" stroke-linejoin="round"/><line x1="12.4" y1="45.9" x2="70.9" y2="29.0" stroke="hsl(29 74% 66%)" stroke-width="0.8" opacity="0.7"/><line x1="26.5" y1="27.3" x2="81.8" y2="45.4" stroke="hsl(29 74% 66%)" stroke-width="0.8" opacity="0.7"/><line x1="37.7" y1="16.3" x2="84.6" y2="69.5" stroke="hsl(341 62% 68%)" stroke-width="0.8" opacity="0.7"/><line x1="63.0" y1="11.7" x2="62.6" y2="75.1" stroke="hsl(29 74% 66%)" stroke-width="0.8" opacity="0.7"/><line x1="70.9" y1="29.0" x2="51.6" y2="88.2" stroke="hsl(341 62% 68%)" stroke-width="0.8" opacity="0.7"/><line x1="81.8" y1="45.4" x2="32.6" y2="75.5" stroke="hsl(341 62% 68%)" stroke-width="0.8" opacity="0.7"/><line x1="84.6" y1="69.5" x2="32.5" y2="60.5" stroke="hsl(341 62% 68%)" stroke-width="0.8" opacity="0.7"/><line x1="62.6" y1="75.1" x2="12.4" y2="45.9" stroke="hsl(341 62% 68%)" stroke-width="0.8" opacity="0.7"/><line x1="51.6" y1="88.2" x2="26.5" y2="27.3" stroke="hsl(29 74% 66%)" stroke-width="0.8" opacity="0.7"/><line x1="32.6" y1="75.5" x2="37.7" y2="16.3" stroke="hsl(29 74% 66%)" stroke-width="0.8" opacity="0.7"/><line x1="32.5" y1="60.5" x2="63.0" y2="11.7" stroke="hsl(341 62% 68%)" stroke-width="0.8" opacity="0.7"/><circle cx="12.4" cy="45.9" r="3.2" fill="hsl(69 66% 56%)"/><circle cx="26.5" cy="27.3" r="1.6" fill="hsl(341 62% 68%)"/><circle cx="37.7" cy="16.3" r="3.1" fill="hsl(341 62% 68%)"/><circle cx="63.0" cy="11.7" r="2.0" fill="hsl(69 66% 56%)"/><circle cx="70.9" cy="29.0" r="2.2" fill="hsl(29 74% 66%)"/><circle cx="81.8" cy="45.4" r="1.8" fill="hsl(69 66% 56%)"/><circle cx="84.6" cy="69.5" r="2.3" fill="hsl(29 74% 66%)"/><circle cx="62.6" cy="75.1" r="3.1" fill="hsl(341 62% 68%)"/><circle cx="51.6" cy="88.2" r="2.1" fill="hsl(341 62% 68%)"/><circle cx="32.6" cy="75.5" r="2.4" fill="hsl(69 66% 56%)"/><circle cx="32.5" cy="60.5" r="2.9" fill="hsl(69 66% 56%)"/><circle cx="48.9" cy="51.7" r="3" fill="hsl(69 74% 82%)"/></svg><rect x="340" y="16" width="150" height="150" rx="8" fill="#141318" stroke="#2a2832"/><svg x="340" y="16" width="150" height="150" viewBox="0 0 100 100"><circle cx="50" cy="50" r="46.5" fill="none" stroke="hsl(81 60% 55%)" stroke-width="0.8" opacity="0.3"/><polygon points="37.6,33.9 53.2,27.1 68.3,43.0 59.8,62.8 43.1,69.8 24.9,62.0" fill="hsl(81 60% 52% / 0.16)" stroke="hsl(81 74% 66%)" stroke-width="1.4" stroke-linejoin="round"/><line x1="37.6" y1="33.9" x2="68.3" y2="43.0" stroke="hsl(121 66% 56%)" stroke-width="0.8" opacity="0.7"/><line x1="53.2" y1="27.1" x2="59.8" y2="62.8" stroke="hsl(81 74% 66%)" stroke-width="0.8" opacity="0.7"/><line x1="68.3" y1="43.0" x2="43.1" y2="69.8" stroke="hsl(121 66% 56%)" stroke-width="0.8" opacity="0.7"/><line x1="59.8" y1="62.8" x2="24.9" y2="62.0" stroke="hsl(81 74% 66%)" stroke-width="0.8" opacity="0.7"/><line x1="43.1" y1="69.8" x2="37.6" y2="33.9" stroke="hsl(33 62% 68%)" stroke-width="0.8" opacity="0.7"/><line x1="24.9" y1="62.0" x2="53.2" y2="27.1" stroke="hsl(121 66% 56%)" stroke-width="0.8" opacity="0.7"/><circle cx="37.6" cy="33.9" r="2.2" fill="hsl(121 66% 56%)"/><circle cx="53.2" cy="27.1" r="1.5" fill="hsl(121 66% 56%)"/><circle cx="68.3" cy="43.0" r="2.6" fill="hsl(81 74% 66%)"/><circle cx="59.8" cy="62.8" r="3.1" fill="hsl(33 62% 68%)"/><circle cx="43.1" cy="69.8" r="3.0" fill="hsl(33 62% 68%)"/><circle cx="24.9" cy="62.0" r="1.8" fill="hsl(121 66% 56%)"/><circle cx="49.3" cy="47.3" r="4" fill="hsl(121 74% 82%)"/></svg><rect x="502" y="16" width="150" height="150" rx="8" fill="#141318" stroke="#2a2832"/><svg x="502" y="16" width="150" height="150" viewBox="0 0 100 100"><circle cx="50" cy="50" r="46.5" fill="none" stroke="hsl(46 60% 55%)" stroke-width="0.8" opacity="0.3"/><polygon points="66.9,77.4 43.7,63.3 26.4,59.6 19.8,38.0 43.6,35.6 57.5,33.0 64.5,43.4 74.3,58.6" fill="hsl(46 60% 52% / 0.16)" stroke="hsl(46 74% 66%)" stroke-width="1.4" stroke-linejoin="round"/><line x1="66.9" y1="77.4" x2="26.4" y2="59.6" stroke="hsl(86 66% 56%)" stroke-width="0.8" opacity="0.7"/><line x1="43.7" y1="63.3" x2="19.8" y2="38.0" stroke="hsl(86 66% 56%)" stroke-width="0.8" opacity="0.7"/><line x1="26.4" y1="59.6" x2="43.6" y2="35.6" stroke="hsl(358 62% 68%)" stroke-width="0.8" opacity="0.7"/><line x1="19.8" y1="38.0" x2="57.5" y2="33.0" stroke="hsl(86 66% 56%)" stroke-width="0.8" opacity="0.7"/><line x1="43.6" y1="35.6" x2="64.5" y2="43.4" stroke="hsl(46 74% 66%)" stroke-width="0.8" opacity="0.7"/><line x1="57.5" y1="33.0" x2="74.3" y2="58.6" stroke="hsl(86 66% 56%)" stroke-width="0.8" opacity="0.7"/><line x1="64.5" y1="43.4" x2="66.9" y2="77.4" stroke="hsl(358 62% 68%)" stroke-width="0.8" opacity="0.7"/><line x1="74.3" y1="58.6" x2="43.7" y2="63.3" stroke="hsl(46 74% 66%)" stroke-width="0.8" opacity="0.7"/><circle cx="66.9" cy="77.4" r="2.0" fill="hsl(86 66% 56%)"/><circle cx="43.7" cy="63.3" r="2.0" fill="hsl(86 66% 56%)"/><circle cx="26.4" cy="59.6" r="2.7" fill="hsl(86 66% 56%)"/><circle cx="19.8" cy="38.0" r="3.2" fill="hsl(46 74% 66%)"/><circle cx="43.6" cy="35.6" r="2.1" fill="hsl(358 62% 68%)"/><circle cx="57.5" cy="33.0" r="2.0" fill="hsl(358 62% 68%)"/><circle cx="64.5" cy="43.4" r="2.7" fill="hsl(358 62% 68%)"/><circle cx="74.3" cy="58.6" r="3.1" fill="hsl(46 74% 66%)"/><circle cx="54.7" cy="53.4" r="3" fill="hsl(86 74% 82%)"/></svg><rect x="664" y="16" width="150" height="150" rx="8" fill="#141318" stroke="#2a2832"/><svg x="664" y="16" width="150" height="150" viewBox="0 0 100 100"><circle cx="50" cy="50" r="46.5" fill="none" stroke="hsl(110 60% 55%)" stroke-width="0.8" opacity="0.3"/><polygon points="78.9,64.8 50.9,71.7 30.2,73.6 29.7,38.9 60.3,24.2 71.5,40.1" fill="hsl(110 60% 52% / 0.16)" stroke="hsl(110 74% 66%)" stroke-width="1.4" stroke-linejoin="round"/><line x1="78.9" y1="64.8" x2="29.7" y2="38.9" stroke="hsl(110 74% 66%)" stroke-width="0.8" opacity="0.7"/><line x1="50.9" y1="71.7" x2="60.3" y2="24.2" stroke="hsl(150 66% 56%)" stroke-width="0.8" opacity="0.7"/><line x1="30.2" y1="73.6" x2="71.5" y2="40.1" stroke="hsl(150 66% 56%)" stroke-width="0.8" opacity="0.7"/><line x1="29.7" y1="38.9" x2="78.9" y2="64.8" stroke="hsl(150 66% 56%)" stroke-width="0.8" opacity="0.7"/><line x1="60.3" y1="24.2" x2="50.9" y2="71.7" stroke="hsl(150 66% 56%)" stroke-width="0.8" opacity="0.7"/><line x1="71.5" y1="40.1" x2="30.2" y2="73.6" stroke="hsl(62 62% 68%)" stroke-width="0.8" opacity="0.7"/><circle cx="78.9" cy="64.8" r="2.4" fill="hsl(150 66% 56%)"/><circle cx="50.9" cy="71.7" r="3.1" fill="hsl(62 62% 68%)"/><circle cx="30.2" cy="73.6" r="1.5" fill="hsl(62 62% 68%)"/><circle cx="29.7" cy="38.9" r="2.9" fill="hsl(62 62% 68%)"/><circle cx="60.3" cy="24.2" r="1.6" fill="hsl(150 66% 56%)"/><circle cx="71.5" cy="40.1" r="2.8" fill="hsl(150 66% 56%)"/><circle cx="47.4" cy="49.3" r="4" fill="hsl(150 74% 82%)"/></svg><rect x="826" y="16" width="150" height="150" rx="8" fill="#141318" stroke="#2a2832"/><svg x="826" y="16" width="150" height="150" viewBox="0 0 100 100"><circle cx="50" cy="50" r="46.5" fill="none" stroke="hsl(250 60% 55%)" stroke-width="0.8" opacity="0.3"/><polygon points="40.0,33.3 53.9,15.7 65.0,37.0 86.6,57.3 69.0,74.8 49.0,71.9 23.9,75.8 31.2,49.2" fill="hsl(250 60% 52% / 0.16)" stroke="hsl(250 74% 66%)" stroke-width="1.4" stroke-linejoin="round"/><line x1="40.0" y1="33.3" x2="23.9" y2="75.8" stroke="hsl(290 66% 56%)" stroke-width="0.8" opacity="0.7"/><line x1="53.9" y1="15.7" x2="31.2" y2="49.2" stroke="hsl(250 74% 66%)" stroke-width="0.8" opacity="0.7"/><line x1="65.0" y1="37.0" x2="40.0" y2="33.3" stroke="hsl(290 66% 56%)" stroke-width="0.8" opacity="0.7"/><line x1="86.6" y1="57.3" x2="53.9" y2="15.7" stroke="hsl(290 66% 56%)" stroke-width="0.8" opacity="0.7"/><line x1="69.0" y1="74.8" x2="65.0" y2="37.0" stroke="hsl(290 66% 56%)" stroke-width="0.8" opacity="0.7"/><line x1="49.0" y1="71.9" x2="86.6" y2="57.3" stroke="hsl(202 62% 68%)" stroke-width="0.8" opacity="0.7"/><line x1="23.9" y1="75.8" x2="69.0" y2="74.8" stroke="hsl(202 62% 68%)" stroke-width="0.8" opacity="0.7"/><line x1="31.2" y1="49.2" x2="49.0" y2="71.9" stroke="hsl(290 66% 56%)" stroke-width="0.8" opacity="0.7"/><circle cx="40.0" cy="33.3" r="1.9" fill="hsl(202 62% 68%)"/><circle cx="53.9" cy="15.7" r="2.3" fill="hsl(290 66% 56%)"/><circle cx="65.0" cy="37.0" r="2.9" fill="hsl(250 74% 66%)"/><circle cx="86.6" cy="57.3" r="1.8" fill="hsl(250 74% 66%)"/><circle cx="69.0" cy="74.8" r="2.2" fill="hsl(202 62% 68%)"/><circle cx="49.0" cy="71.9" r="2.6" fill="hsl(202 62% 68%)"/><circle cx="23.9" cy="75.8" r="3.1" fill="hsl(250 74% 66%)"/><circle cx="31.2" cy="49.2" r="1.5" fill="hsl(290 66% 56%)"/><circle cx="47.8" cy="50.2" r="4" fill="hsl(290 74% 82%)"/></svg><rect x="16" y="178" width="150" height="150" rx="8" fill="#141318" stroke="#2a2832"/><svg x="16" y="178" width="150" height="150" viewBox="0 0 100 100"><circle cx="50" cy="50" r="46.5" fill="none" stroke="hsl(271 60% 55%)" stroke-width="0.8" opacity="0.3"/><polygon points="20.1,51.5 24.0,37.0 44.3,32.9 63.6,23.7 75.4,41.3 80.0,53.5 71.5,65.1 48.5,69.9 39.5,63.5" fill="hsl(271 60% 52% / 0.16)" stroke="hsl(271 74% 66%)" stroke-width="1.4" stroke-linejoin="round"/><line x1="20.1" y1="51.5" x2="80.0" y2="53.5" stroke="hsl(271 74% 66%)" stroke-width="0.8" opacity="0.7"/><line x1="24.0" y1="37.0" x2="71.5" y2="65.1" stroke="hsl(223 62% 68%)" stroke-width="0.8" opacity="0.7"/><line x1="44.3" y1="32.9" x2="48.5" y2="69.9" stroke="hsl(311 66% 56%)" stroke-width="0.8" opacity="0.7"/><line x1="63.6" y1="23.7" x2="39.5" y2="63.5" stroke="hsl(311 66% 56%)" stroke-width="0.8" opacity="0.7"/><line x1="75.4" y1="41.3" x2="20.1" y2="51.5" stroke="hsl(271 74% 66%)" stroke-width="0.8" opacity="0.7"/><line x1="80.0" y1="53.5" x2="24.0" y2="37.0" stroke="hsl(223 62% 68%)" stroke-width="0.8" opacity="0.7"/><line x1="71.5" y1="65.1" x2="44.3" y2="32.9" stroke="hsl(271 74% 66%)" stroke-width="0.8" opacity="0.7"/><line x1="48.5" y1="69.9" x2="63.6" y2="23.7" stroke="hsl(311 66% 56%)" stroke-width="0.8" opacity="0.7"/><line x1="39.5" y1="63.5" x2="75.4" y2="41.3" stroke="hsl(223 62% 68%)" stroke-width="0.8" opacity="0.7"/><circle cx="20.1" cy="51.5" r="1.9" fill="hsl(223 62% 68%)"/><circle cx="24.0" cy="37.0" r="3.1" fill="hsl(223 62% 68%)"/><circle cx="44.3" cy="32.9" r="2.9" fill="hsl(223 62% 68%)"/><circle cx="63.6" cy="23.7" r="2.3" fill="hsl(311 66% 56%)"/><circle cx="75.4" cy="41.3" r="2.4" fill="hsl(271 74% 66%)"/><circle cx="80.0" cy="53.5" r="2.3" fill="hsl(223 62% 68%)"/><circle cx="71.5" cy="65.1" r="2.5" fill="hsl(311 66% 56%)"/><circle cx="48.5" cy="69.9" r="2.9" fill="hsl(311 66% 56%)"/><circle cx="39.5" cy="63.5" r="1.7" fill="hsl(271 74% 66%)"/><circle cx="48.3" cy="46.6" r="3" fill="hsl(311 74% 82%)"/></svg><rect x="178" y="178" width="150" height="150" rx="8" fill="#141318" stroke="#2a2832"/><svg x="178" y="178" width="150" height="150" viewBox="0 0 100 100"><circle cx="50" cy="50" r="46.5" fill="none" stroke="hsl(293 60% 55%)" stroke-width="0.8" opacity="0.3"/><polygon points="78.8,45.5 65.5,60.0 43.3,64.3 21.1,44.1 45.6,26.5" fill="hsl(293 60% 52% / 0.16)" stroke="hsl(293 74% 66%)" stroke-width="1.4" stroke-linejoin="round"/><line x1="78.8" y1="45.5" x2="43.3" y2="64.3" stroke="hsl(293 74% 66%)" stroke-width="0.8" opacity="0.7"/><line x1="65.5" y1="60.0" x2="21.1" y2="44.1" stroke="hsl(333 66% 56%)" stroke-width="0.8" opacity="0.7"/><line x1="43.3" y1="64.3" x2="45.6" y2="26.5" stroke="hsl(245 62% 68%)" stroke-width="0.8" opacity="0.7"/><line x1="21.1" y1="44.1" x2="78.8" y2="45.5" stroke="hsl(245 62% 68%)" stroke-width="0.8" opacity="0.7"/><line x1="45.6" y1="26.5" x2="65.5" y2="60.0" stroke="hsl(245 62% 68%)" stroke-width="0.8" opacity="0.7"/><circle cx="78.8" cy="45.5" r="2.9" fill="hsl(293 74% 66%)"/><circle cx="65.5" cy="60.0" r="1.9" fill="hsl(245 62% 68%)"/><circle cx="43.3" cy="64.3" r="3.2" fill="hsl(245 62% 68%)"/><circle cx="21.1" cy="44.1" r="2.8" fill="hsl(293 74% 66%)"/><circle cx="45.6" cy="26.5" r="1.8" fill="hsl(245 62% 68%)"/><circle cx="46.1" cy="45.2" r="3" fill="hsl(333 74% 82%)"/></svg><rect x="340" y="178" width="150" height="150" rx="8" fill="#141318" stroke="#2a2832"/><svg x="340" y="178" width="150" height="150" viewBox="0 0 100 100"><circle cx="50" cy="50" r="46.5" fill="none" stroke="hsl(101 60% 55%)" stroke-width="0.8" opacity="0.3"/><polygon points="76.0,75.0 51.6,76.0 21.5,73.2 14.0,37.0 36.2,34.2 49.7,32.2 85.1,39.3" fill="hsl(101 60% 52% / 0.16)" stroke="hsl(101 74% 66%)" stroke-width="1.4" stroke-linejoin="round"/><line x1="76.0" y1="75.0" x2="49.7" y2="32.2" stroke="hsl(101 74% 66%)" stroke-width="0.8" opacity="0.7"/><line x1="51.6" y1="76.0" x2="85.1" y2="39.3" stroke="hsl(101 74% 66%)" stroke-width="0.8" opacity="0.7"/><line x1="21.5" y1="73.2" x2="76.0" y2="75.0" stroke="hsl(141 66% 56%)" stroke-width="0.8" opacity="0.7"/><line x1="14.0" y1="37.0" x2="51.6" y2="76.0" stroke="hsl(141 66% 56%)" stroke-width="0.8" opacity="0.7"/><line x1="36.2" y1="34.2" x2="21.5" y2="73.2" stroke="hsl(101 74% 66%)" stroke-width="0.8" opacity="0.7"/><line x1="49.7" y1="32.2" x2="14.0" y2="37.0" stroke="hsl(53 62% 68%)" stroke-width="0.8" opacity="0.7"/><line x1="85.1" y1="39.3" x2="36.2" y2="34.2" stroke="hsl(53 62% 68%)" stroke-width="0.8" opacity="0.7"/><circle cx="76.0" cy="75.0" r="2.6" fill="hsl(101 74% 66%)"/><circle cx="51.6" cy="76.0" r="3.2" fill="hsl(141 66% 56%)"/><circle cx="21.5" cy="73.2" r="1.7" fill="hsl(53 62% 68%)"/><circle cx="14.0" cy="37.0" r="2.3" fill="hsl(141 66% 56%)"/><circle cx="36.2" cy="34.2" r="3.1" fill="hsl(53 62% 68%)"/><circle cx="49.7" cy="32.2" r="2.2" fill="hsl(101 74% 66%)"/><circle cx="85.1" cy="39.3" r="1.9" fill="hsl(53 62% 68%)"/><circle cx="54.5" cy="46.6" r="2" fill="hsl(141 74% 82%)"/></svg><rect x="502" y="178" width="150" height="150" rx="8" fill="#141318" stroke="#2a2832"/><svg x="502" y="178" width="150" height="150" viewBox="0 0 100 100"><circle cx="50" cy="50" r="46.5" fill="none" stroke="hsl(52 60% 55%)" stroke-width="0.8" opacity="0.3"/><polygon points="67.9,33.7 70.8,55.8 48.1,79.4 36.7,64.1 34.3,32.5 50.7,33.2" fill="hsl(52 60% 52% / 0.16)" stroke="hsl(52 74% 66%)" stroke-width="1.4" stroke-linejoin="round"/><line x1="67.9" y1="33.7" x2="48.1" y2="79.4" stroke="hsl(52 74% 66%)" stroke-width="0.8" opacity="0.7"/><line x1="70.8" y1="55.8" x2="36.7" y2="64.1" stroke="hsl(4 62% 68%)" stroke-width="0.8" opacity="0.7"/><line x1="48.1" y1="79.4" x2="34.3" y2="32.5" stroke="hsl(52 74% 66%)" stroke-width="0.8" opacity="0.7"/><line x1="36.7" y1="64.1" x2="50.7" y2="33.2" stroke="hsl(52 74% 66%)" stroke-width="0.8" opacity="0.7"/><line x1="34.3" y1="32.5" x2="67.9" y2="33.7" stroke="hsl(4 62% 68%)" stroke-width="0.8" opacity="0.7"/><line x1="50.7" y1="33.2" x2="70.8" y2="55.8" stroke="hsl(92 66% 56%)" stroke-width="0.8" opacity="0.7"/><circle cx="67.9" cy="33.7" r="1.5" fill="hsl(4 62% 68%)"/><circle cx="70.8" cy="55.8" r="1.8" fill="hsl(4 62% 68%)"/><circle cx="48.1" cy="79.4" r="1.8" fill="hsl(92 66% 56%)"/><circle cx="36.7" cy="64.1" r="3.0" fill="hsl(92 66% 56%)"/><circle cx="34.3" cy="32.5" r="2.7" fill="hsl(4 62% 68%)"/><circle cx="50.7" cy="33.2" r="2.8" fill="hsl(92 66% 56%)"/><circle cx="46.6" cy="48.4" r="4" fill="hsl(92 74% 82%)"/></svg><rect x="664" y="178" width="150" height="150" rx="8" fill="#141318" stroke="#2a2832"/><svg x="664" y="178" width="150" height="150" viewBox="0 0 100 100"><circle cx="50" cy="50" r="46.5" fill="none" stroke="hsl(14 60% 55%)" stroke-width="0.8" opacity="0.3"/><polygon points="66.4,36.4 68.5,78.4 48.6,67.3 21.7,48.7 45.8,15.1" fill="hsl(14 60% 52% / 0.16)" stroke="hsl(14 74% 66%)" stroke-width="1.4" stroke-linejoin="round"/><line x1="66.4" y1="36.4" x2="21.7" y2="48.7" stroke="hsl(54 66% 56%)" stroke-width="0.8" opacity="0.7"/><line x1="68.5" y1="78.4" x2="45.8" y2="15.1" stroke="hsl(326 62% 68%)" stroke-width="0.8" opacity="0.7"/><line x1="48.6" y1="67.3" x2="66.4" y2="36.4" stroke="hsl(54 66% 56%)" stroke-width="0.8" opacity="0.7"/><line x1="21.7" y1="48.7" x2="68.5" y2="78.4" stroke="hsl(326 62% 68%)" stroke-width="0.8" opacity="0.7"/><line x1="45.8" y1="15.1" x2="48.6" y2="67.3" stroke="hsl(54 66% 56%)" stroke-width="0.8" opacity="0.7"/><circle cx="66.4" cy="36.4" r="1.9" fill="hsl(54 66% 56%)"/><circle cx="68.5" cy="78.4" r="2.2" fill="hsl(326 62% 68%)"/><circle cx="48.6" cy="67.3" r="1.4" fill="hsl(54 66% 56%)"/><circle cx="21.7" cy="48.7" r="2.9" fill="hsl(326 62% 68%)"/><circle cx="45.8" cy="15.1" r="2.5" fill="hsl(54 66% 56%)"/><circle cx="51.1" cy="54.5" r="3" fill="hsl(54 74% 82%)"/></svg><rect x="826" y="178" width="150" height="150" rx="8" fill="#141318" stroke="#2a2832"/><svg x="826" y="178" width="150" height="150" viewBox="0 0 100 100"><circle cx="50" cy="50" r="46.5" fill="none" stroke="hsl(279 60% 55%)" stroke-width="0.8" opacity="0.3"/><polygon points="30.1,30.6 54.8,22.8 68.8,51.9 54.4,65.4 33.4,60.6" fill="hsl(279 60% 52% / 0.16)" stroke="hsl(279 74% 66%)" stroke-width="1.4" stroke-linejoin="round"/><line x1="30.1" y1="30.6" x2="68.8" y2="51.9" stroke="hsl(319 66% 56%)" stroke-width="0.8" opacity="0.7"/><line x1="54.8" y1="22.8" x2="54.4" y2="65.4" stroke="hsl(279 74% 66%)" stroke-width="0.8" opacity="0.7"/><line x1="68.8" y1="51.9" x2="33.4" y2="60.6" stroke="hsl(319 66% 56%)" stroke-width="0.8" opacity="0.7"/><line x1="54.4" y1="65.4" x2="30.1" y2="30.6" stroke="hsl(279 74% 66%)" stroke-width="0.8" opacity="0.7"/><line x1="33.4" y1="60.6" x2="54.8" y2="22.8" stroke="hsl(279 74% 66%)" stroke-width="0.8" opacity="0.7"/><circle cx="30.1" cy="30.6" r="2.5" fill="hsl(279 74% 66%)"/><circle cx="54.8" cy="22.8" r="1.5" fill="hsl(231 62% 68%)"/><circle cx="68.8" cy="51.9" r="1.6" fill="hsl(319 66% 56%)"/><circle cx="54.4" cy="65.4" r="2.5" fill="hsl(279 74% 66%)"/><circle cx="33.4" cy="60.6" r="1.7" fill="hsl(231 62% 68%)"/><circle cx="51.5" cy="46.8" r="4" fill="hsl(319 74% 82%)"/></svg><rect x="16" y="340" width="150" height="150" rx="8" fill="#141318" stroke="#2a2832"/><svg x="16" y="340" width="150" height="150" viewBox="0 0 100 100"><circle cx="50" cy="50" r="46.5" fill="none" stroke="hsl(280 60% 55%)" stroke-width="0.8" opacity="0.3"/><polygon points="67.8,54.3 51.9,82.4 31.8,69.2 11.8,40.2 48.5,20.7 66.3,31.8" fill="hsl(280 60% 52% / 0.16)" stroke="hsl(280 74% 66%)" stroke-width="1.4" stroke-linejoin="round"/><line x1="67.8" y1="54.3" x2="48.5" y2="20.7" stroke="hsl(280 74% 66%)" stroke-width="0.8" opacity="0.7"/><line x1="51.9" y1="82.4" x2="66.3" y2="31.8" stroke="hsl(320 66% 56%)" stroke-width="0.8" opacity="0.7"/><line x1="31.8" y1="69.2" x2="67.8" y2="54.3" stroke="hsl(280 74% 66%)" stroke-width="0.8" opacity="0.7"/><line x1="11.8" y1="40.2" x2="51.9" y2="82.4" stroke="hsl(320 66% 56%)" stroke-width="0.8" opacity="0.7"/><line x1="48.5" y1="20.7" x2="31.8" y2="69.2" stroke="hsl(320 66% 56%)" stroke-width="0.8" opacity="0.7"/><line x1="66.3" y1="31.8" x2="11.8" y2="40.2" stroke="hsl(232 62% 68%)" stroke-width="0.8" opacity="0.7"/><circle cx="67.8" cy="54.3" r="2.9" fill="hsl(280 74% 66%)"/><circle cx="51.9" cy="82.4" r="2.5" fill="hsl(232 62% 68%)"/><circle cx="31.8" cy="69.2" r="2.4" fill="hsl(232 62% 68%)"/><circle cx="11.8" cy="40.2" r="1.5" fill="hsl(280 74% 66%)"/><circle cx="48.5" cy="20.7" r="2.2" fill="hsl(320 66% 56%)"/><circle cx="66.3" cy="31.8" r="3.1" fill="hsl(320 66% 56%)"/><circle cx="50.3" cy="48.7" r="4" fill="hsl(320 74% 82%)"/></svg><rect x="178" y="340" width="150" height="150" rx="8" fill="#141318" stroke="#2a2832"/><svg x="178" y="340" width="150" height="150" viewBox="0 0 100 100"><circle cx="50" cy="50" r="46.5" fill="none" stroke="hsl(341 60% 55%)" stroke-width="0.8" opacity="0.3"/><polygon points="55.1,24.9 74.4,33.3 63.2,58.9 50.7,77.3 32.8,60.6 35.1,37.6" fill="hsl(341 60% 52% / 0.16)" stroke="hsl(341 74% 66%)" stroke-width="1.4" stroke-linejoin="round"/><line x1="55.1" y1="24.9" x2="32.8" y2="60.6" stroke="hsl(341 74% 66%)" stroke-width="0.8" opacity="0.7"/><line x1="74.4" y1="33.3" x2="35.1" y2="37.6" stroke="hsl(293 62% 68%)" stroke-width="0.8" opacity="0.7"/><line x1="63.2" y1="58.9" x2="55.1" y2="24.9" stroke="hsl(293 62% 68%)" stroke-width="0.8" opacity="0.7"/><line x1="50.7" y1="77.3" x2="74.4" y2="33.3" stroke="hsl(293 62% 68%)" stroke-width="0.8" opacity="0.7"/><line x1="32.8" y1="60.6" x2="63.2" y2="58.9" stroke="hsl(341 74% 66%)" stroke-width="0.8" opacity="0.7"/><line x1="35.1" y1="37.6" x2="50.7" y2="77.3" stroke="hsl(293 62% 68%)" stroke-width="0.8" opacity="0.7"/><circle cx="55.1" cy="24.9" r="2.7" fill="hsl(293 62% 68%)"/><circle cx="74.4" cy="33.3" r="2.3" fill="hsl(293 62% 68%)"/><circle cx="63.2" cy="58.9" r="2.5" fill="hsl(21 66% 56%)"/><circle cx="50.7" cy="77.3" r="1.4" fill="hsl(341 74% 66%)"/><circle cx="32.8" cy="60.6" r="1.7" fill="hsl(21 66% 56%)"/><circle cx="35.1" cy="37.6" r="3.0" fill="hsl(341 74% 66%)"/><circle cx="51.7" cy="47.8" r="3" fill="hsl(21 74% 82%)"/></svg><rect x="340" y="340" width="150" height="150" rx="8" fill="#141318" stroke="#2a2832"/><svg x="340" y="340" width="150" height="150" viewBox="0 0 100 100"><circle cx="50" cy="50" r="46.5" fill="none" stroke="hsl(4 60% 55%)" stroke-width="0.8" opacity="0.3"/><polygon points="66.9,69.4 52.3,88.7 34.4,75.0 25.4,57.1 17.2,43.6 38.7,37.2 43.5,14.9 63.4,18.2 66.4,41.4 79.2,61.9" fill="hsl(4 60% 52% / 0.16)" stroke="hsl(4 74% 66%)" stroke-width="1.4" stroke-linejoin="round"/><line x1="66.9" y1="69.4" x2="38.7" y2="37.2" stroke="hsl(44 66% 56%)" stroke-width="0.8" opacity="0.7"/><line x1="52.3" y1="88.7" x2="43.5" y2="14.9" stroke="hsl(316 62% 68%)" stroke-width="0.8" opacity="0.7"/><line x1="34.4" y1="75.0" x2="63.4" y2="18.2" stroke="hsl(316 62% 68%)" stroke-width="0.8" opacity="0.7"/><line x1="25.4" y1="57.1" x2="66.4" y2="41.4" stroke="hsl(4 74% 66%)" stroke-width="0.8" opacity="0.7"/><line x1="17.2" y1="43.6" x2="79.2" y2="61.9" stroke="hsl(44 66% 56%)" stroke-width="0.8" opacity="0.7"/><line x1="38.7" y1="37.2" x2="66.9" y2="69.4" stroke="hsl(4 74% 66%)" stroke-width="0.8" opacity="0.7"/><line x1="43.5" y1="14.9" x2="52.3" y2="88.7" stroke="hsl(316 62% 68%)" stroke-width="0.8" opacity="0.7"/><line x1="63.4" y1="18.2" x2="34.4" y2="75.0" stroke="hsl(316 62% 68%)" stroke-width="0.8" opacity="0.7"/><line x1="66.4" y1="41.4" x2="25.4" y2="57.1" stroke="hsl(316 62% 68%)" stroke-width="0.8" opacity="0.7"/><line x1="79.2" y1="61.9" x2="17.2" y2="43.6" stroke="hsl(4 74% 66%)" stroke-width="0.8" opacity="0.7"/><circle cx="66.9" cy="69.4" r="1.6" fill="hsl(316 62% 68%)"/><circle cx="52.3" cy="88.7" r="1.9" fill="hsl(316 62% 68%)"/><circle cx="34.4" cy="75.0" r="3.1" fill="hsl(44 66% 56%)"/><circle cx="25.4" cy="57.1" r="2.1" fill="hsl(44 66% 56%)"/><circle cx="17.2" cy="43.6" r="2.6" fill="hsl(316 62% 68%)"/><circle cx="38.7" cy="37.2" r="2.0" fill="hsl(316 62% 68%)"/><circle cx="43.5" cy="14.9" r="1.7" fill="hsl(4 74% 66%)"/><circle cx="63.4" cy="18.2" r="2.4" fill="hsl(44 66% 56%)"/><circle cx="66.4" cy="41.4" r="1.7" fill="hsl(316 62% 68%)"/><circle cx="79.2" cy="61.9" r="2.2" fill="hsl(316 62% 68%)"/><circle cx="47.2" cy="54.7" r="4" fill="hsl(44 74% 82%)"/></svg><rect x="502" y="340" width="150" height="150" rx="8" fill="#141318" stroke="#2a2832"/><svg x="502" y="340" width="150" height="150" viewBox="0 0 100 100"><circle cx="50" cy="50" r="46.5" fill="none" stroke="hsl(208 60% 55%)" stroke-width="0.8" opacity="0.3"/><polygon points="69.4,39.5 80.8,73.8 61.8,82.1 46.9,69.3 30.9,63.1 15.1,63.1 34.3,42.3 40.0,24.3 49.1,29.8 65.2,26.8" fill="hsl(208 60% 52% / 0.16)" stroke="hsl(208 74% 66%)" stroke-width="1.4" stroke-linejoin="round"/><line x1="69.4" y1="39.5" x2="46.9" y2="69.3" stroke="hsl(160 62% 68%)" stroke-width="0.8" opacity="0.7"/><line x1="80.8" y1="73.8" x2="30.9" y2="63.1" stroke="hsl(248 66% 56%)" stroke-width="0.8" opacity="0.7"/><line x1="61.8" y1="82.1" x2="15.1" y2="63.1" stroke="hsl(160 62% 68%)" stroke-width="0.8" opacity="0.7"/><line x1="46.9" y1="69.3" x2="34.3" y2="42.3" stroke="hsl(160 62% 68%)" stroke-width="0.8" opacity="0.7"/><line x1="30.9" y1="63.1" x2="40.0" y2="24.3" stroke="hsl(160 62% 68%)" stroke-width="0.8" opacity="0.7"/><line x1="15.1" y1="63.1" x2="49.1" y2="29.8" stroke="hsl(208 74% 66%)" stroke-width="0.8" opacity="0.7"/><line x1="34.3" y1="42.3" x2="65.2" y2="26.8" stroke="hsl(160 62% 68%)" stroke-width="0.8" opacity="0.7"/><line x1="40.0" y1="24.3" x2="69.4" y2="39.5" stroke="hsl(208 74% 66%)" stroke-width="0.8" opacity="0.7"/><line x1="49.1" y1="29.8" x2="80.8" y2="73.8" stroke="hsl(248 66% 56%)" stroke-width="0.8" opacity="0.7"/><line x1="65.2" y1="26.8" x2="61.8" y2="82.1" stroke="hsl(160 62% 68%)" stroke-width="0.8" opacity="0.7"/><circle cx="69.4" cy="39.5" r="1.8" fill="hsl(160 62% 68%)"/><circle cx="80.8" cy="73.8" r="1.5" fill="hsl(248 66% 56%)"/><circle cx="61.8" cy="82.1" r="1.7" fill="hsl(160 62% 68%)"/><circle cx="46.9" cy="69.3" r="3.0" fill="hsl(208 74% 66%)"/><circle cx="30.9" cy="63.1" r="2.5" fill="hsl(248 66% 56%)"/><circle cx="15.1" cy="63.1" r="1.8" fill="hsl(160 62% 68%)"/><circle cx="34.3" cy="42.3" r="2.6" fill="hsl(248 66% 56%)"/><circle cx="40.0" cy="24.3" r="2.0" fill="hsl(160 62% 68%)"/><circle cx="49.1" cy="29.8" r="1.8" fill="hsl(208 74% 66%)"/><circle cx="65.2" cy="26.8" r="2.9" fill="hsl(208 74% 66%)"/><circle cx="50.7" cy="46.3" r="3" fill="hsl(248 74% 82%)"/></svg><rect x="664" y="340" width="150" height="150" rx="8" fill="#141318" stroke="#2a2832"/><svg x="664" y="340" width="150" height="150" viewBox="0 0 100 100"><circle cx="50" cy="50" r="46.5" fill="none" stroke="hsl(348 60% 55%)" stroke-width="0.8" opacity="0.3"/><polygon points="65.4,73.2 43.6,89.9 34.0,75.7 13.1,54.2 31.8,41.9 40.3,24.9 59.8,32.9 68.3,44.5 74.9,58.9" fill="hsl(348 60% 52% / 0.16)" stroke="hsl(348 74% 66%)" stroke-width="1.4" stroke-linejoin="round"/><line x1="65.4" y1="73.2" x2="34.0" y2="75.7" stroke="hsl(348 74% 66%)" stroke-width="0.8" opacity="0.7"/><line x1="43.6" y1="89.9" x2="13.1" y2="54.2" stroke="hsl(300 62% 68%)" stroke-width="0.8" opacity="0.7"/><line x1="34.0" y1="75.7" x2="31.8" y2="41.9" stroke="hsl(28 66% 56%)" stroke-width="0.8" opacity="0.7"/><line x1="13.1" y1="54.2" x2="40.3" y2="24.9" stroke="hsl(348 74% 66%)" stroke-width="0.8" opacity="0.7"/><line x1="31.8" y1="41.9" x2="59.8" y2="32.9" stroke="hsl(300 62% 68%)" stroke-width="0.8" opacity="0.7"/><line x1="40.3" y1="24.9" x2="68.3" y2="44.5" stroke="hsl(28 66% 56%)" stroke-width="0.8" opacity="0.7"/><line x1="59.8" y1="32.9" x2="74.9" y2="58.9" stroke="hsl(28 66% 56%)" stroke-width="0.8" opacity="0.7"/><line x1="68.3" y1="44.5" x2="65.4" y2="73.2" stroke="hsl(28 66% 56%)" stroke-width="0.8" opacity="0.7"/><line x1="74.9" y1="58.9" x2="43.6" y2="89.9" stroke="hsl(300 62% 68%)" stroke-width="0.8" opacity="0.7"/><circle cx="65.4" cy="73.2" r="1.5" fill="hsl(348 74% 66%)"/><circle cx="43.6" cy="89.9" r="2.2" fill="hsl(348 74% 66%)"/><circle cx="34.0" cy="75.7" r="1.7" fill="hsl(300 62% 68%)"/><circle cx="13.1" cy="54.2" r="3.1" fill="hsl(28 66% 56%)"/><circle cx="31.8" cy="41.9" r="1.7" fill="hsl(28 66% 56%)"/><circle cx="40.3" cy="24.9" r="3.2" fill="hsl(348 74% 66%)"/><circle cx="59.8" cy="32.9" r="1.8" fill="hsl(348 74% 66%)"/><circle cx="68.3" cy="44.5" r="1.6" fill="hsl(300 62% 68%)"/><circle cx="74.9" cy="58.9" r="1.6" fill="hsl(348 74% 66%)"/><circle cx="48.5" cy="48.1" r="3" fill="hsl(28 74% 82%)"/></svg><rect x="826" y="340" width="150" height="150" rx="8" fill="#141318" stroke="#2a2832"/><svg x="826" y="340" width="150" height="150" viewBox="0 0 100 100"><circle cx="50" cy="50" r="46.5" fill="none" stroke="hsl(337 60% 55%)" stroke-width="0.8" opacity="0.3"/><polygon points="67.1,32.5 71.1,47.7 74.2,69.2 57.3,75.5 43.9,67.7 30.5,75.1 30.6,51.3 29.1,41.9 43.4,27.4 57.6,26.7" fill="hsl(337 60% 52% / 0.16)" stroke="hsl(337 74% 66%)" stroke-width="1.4" stroke-linejoin="round"/><line x1="67.1" y1="32.5" x2="29.1" y2="41.9" stroke="hsl(17 66% 56%)" stroke-width="0.8" opacity="0.7"/><line x1="71.1" y1="47.7" x2="43.4" y2="27.4" stroke="hsl(289 62% 68%)" stroke-width="0.8" opacity="0.7"/><line x1="74.2" y1="69.2" x2="57.6" y2="26.7" stroke="hsl(17 66% 56%)" stroke-width="0.8" opacity="0.7"/><line x1="57.3" y1="75.5" x2="67.1" y2="32.5" stroke="hsl(17 66% 56%)" stroke-width="0.8" opacity="0.7"/><line x1="43.9" y1="67.7" x2="71.1" y2="47.7" stroke="hsl(17 66% 56%)" stroke-width="0.8" opacity="0.7"/><line x1="30.5" y1="75.1" x2="74.2" y2="69.2" stroke="hsl(337 74% 66%)" stroke-width="0.8" opacity="0.7"/><line x1="30.6" y1="51.3" x2="57.3" y2="75.5" stroke="hsl(289 62% 68%)" stroke-width="0.8" opacity="0.7"/><line x1="29.1" y1="41.9" x2="43.9" y2="67.7" stroke="hsl(289 62% 68%)" stroke-width="0.8" opacity="0.7"/><line x1="43.4" y1="27.4" x2="30.5" y2="75.1" stroke="hsl(17 66% 56%)" stroke-width="0.8" opacity="0.7"/><line x1="57.6" y1="26.7" x2="30.6" y2="51.3" stroke="hsl(337 74% 66%)" stroke-width="0.8" opacity="0.7"/><circle cx="67.1" cy="32.5" r="3.0" fill="hsl(337 74% 66%)"/><circle cx="71.1" cy="47.7" r="1.4" fill="hsl(17 66% 56%)"/><circle cx="74.2" cy="69.2" r="1.5" fill="hsl(17 66% 56%)"/><circle cx="57.3" cy="75.5" r="3.2" fill="hsl(337 74% 66%)"/><circle cx="43.9" cy="67.7" r="2.5" fill="hsl(17 66% 56%)"/><circle cx="30.5" cy="75.1" r="2.5" fill="hsl(289 62% 68%)"/><circle cx="30.6" cy="51.3" r="3.0" fill="hsl(289 62% 68%)"/><circle cx="29.1" cy="41.9" r="2.3" fill="hsl(17 66% 56%)"/><circle cx="43.4" cy="27.4" r="2.4" fill="hsl(337 74% 66%)"/><circle cx="57.6" cy="26.7" r="3.2" fill="hsl(337 74% 66%)"/><circle cx="54.8" cy="53.2" r="3" fill="hsl(17 74% 82%)"/></svg><rect x="16" y="502" width="150" height="150" rx="8" fill="#141318" stroke="#2a2832"/><svg x="16" y="502" width="150" height="150" viewBox="0 0 100 100"><circle cx="50" cy="50" r="46.5" fill="none" stroke="hsl(165 60% 55%)" stroke-width="0.8" opacity="0.3"/><polygon points="57.6,65.3 47.6,72.1 36.7,67.6 27.0,60.5 22.8,46.2 33.5,33.1 41.2,21.6 57.0,29.9 67.7,35.5 78.8,45.3 70.6,58.1" fill="hsl(165 60% 52% / 0.16)" stroke="hsl(165 74% 66%)" stroke-width="1.4" stroke-linejoin="round"/><line x1="57.6" y1="65.3" x2="22.8" y2="46.2" stroke="hsl(165 74% 66%)" stroke-width="0.8" opacity="0.7"/><line x1="47.6" y1="72.1" x2="33.5" y2="33.1" stroke="hsl(117 62% 68%)" stroke-width="0.8" opacity="0.7"/><line x1="36.7" y1="67.6" x2="41.2" y2="21.6" stroke="hsl(165 74% 66%)" stroke-width="0.8" opacity="0.7"/><line x1="27.0" y1="60.5" x2="57.0" y2="29.9" stroke="hsl(117 62% 68%)" stroke-width="0.8" opacity="0.7"/><line x1="22.8" y1="46.2" x2="67.7" y2="35.5" stroke="hsl(205 66% 56%)" stroke-width="0.8" opacity="0.7"/><line x1="33.5" y1="33.1" x2="78.8" y2="45.3" stroke="hsl(165 74% 66%)" stroke-width="0.8" opacity="0.7"/><line x1="41.2" y1="21.6" x2="70.6" y2="58.1" stroke="hsl(117 62% 68%)" stroke-width="0.8" opacity="0.7"/><line x1="57.0" y1="29.9" x2="57.6" y2="65.3" stroke="hsl(165 74% 66%)" stroke-width="0.8" opacity="0.7"/><line x1="67.7" y1="35.5" x2="47.6" y2="72.1" stroke="hsl(165 74% 66%)" stroke-width="0.8" opacity="0.7"/><line x1="78.8" y1="45.3" x2="36.7" y2="67.6" stroke="hsl(165 74% 66%)" stroke-width="0.8" opacity="0.7"/><line x1="70.6" y1="58.1" x2="27.0" y2="60.5" stroke="hsl(117 62% 68%)" stroke-width="0.8" opacity="0.7"/><circle cx="57.6" cy="65.3" r="1.6" fill="hsl(205 66% 56%)"/><circle cx="47.6" cy="72.1" r="2.0" fill="hsl(165 74% 66%)"/><circle cx="36.7" cy="67.6" r="2.1" fill="hsl(165 74% 66%)"/><circle cx="27.0" cy="60.5" r="2.9" fill="hsl(205 66% 56%)"/><circle cx="22.8" cy="46.2" r="2.0" fill="hsl(165 74% 66%)"/><circle cx="33.5" cy="33.1" r="1.9" fill="hsl(165 74% 66%)"/><circle cx="41.2" cy="21.6" r="2.2" fill="hsl(205 66% 56%)"/><circle cx="57.0" cy="29.9" r="2.7" fill="hsl(117 62% 68%)"/><circle cx="67.7" cy="35.5" r="1.5" fill="hsl(165 74% 66%)"/><circle cx="78.8" cy="45.3" r="1.8" fill="hsl(205 66% 56%)"/><circle cx="70.6" cy="58.1" r="3.1" fill="hsl(205 66% 56%)"/><circle cx="53.6" cy="45.3" r="4" fill="hsl(205 74% 82%)"/></svg><rect x="178" y="502" width="150" height="150" rx="8" fill="#141318" stroke="#2a2832"/><svg x="178" y="502" width="150" height="150" viewBox="0 0 100 100"><circle cx="50" cy="50" r="46.5" fill="none" stroke="hsl(139 60% 55%)" stroke-width="0.8" opacity="0.3"/><polygon points="38.8,38.6 46.6,32.1 61.8,37.2 69.4,47.0 66.2,64.9 54.3,80.0 32.7,70.1 27.6,49.2" fill="hsl(139 60% 52% / 0.16)" stroke="hsl(139 74% 66%)" stroke-width="1.4" stroke-linejoin="round"/><line x1="38.8" y1="38.6" x2="61.8" y2="37.2" stroke="hsl(139 74% 66%)" stroke-width="0.8" opacity="0.7"/><line x1="46.6" y1="32.1" x2="69.4" y2="47.0" stroke="hsl(139 74% 66%)" stroke-width="0.8" opacity="0.7"/><line x1="61.8" y1="37.2" x2="66.2" y2="64.9" stroke="hsl(179 66% 56%)" stroke-width="0.8" opacity="0.7"/><line x1="69.4" y1="47.0" x2="54.3" y2="80.0" stroke="hsl(91 62% 68%)" stroke-width="0.8" opacity="0.7"/><line x1="66.2" y1="64.9" x2="32.7" y2="70.1" stroke="hsl(179 66% 56%)" stroke-width="0.8" opacity="0.7"/><line x1="54.3" y1="80.0" x2="27.6" y2="49.2" stroke="hsl(139 74% 66%)" stroke-width="0.8" opacity="0.7"/><line x1="32.7" y1="70.1" x2="38.8" y2="38.6" stroke="hsl(139 74% 66%)" stroke-width="0.8" opacity="0.7"/><line x1="27.6" y1="49.2" x2="46.6" y2="32.1" stroke="hsl(179 66% 56%)" stroke-width="0.8" opacity="0.7"/><circle cx="38.8" cy="38.6" r="2.8" fill="hsl(179 66% 56%)"/><circle cx="46.6" cy="32.1" r="1.5" fill="hsl(179 66% 56%)"/><circle cx="61.8" cy="37.2" r="2.1" fill="hsl(179 66% 56%)"/><circle cx="69.4" cy="47.0" r="2.2" fill="hsl(139 74% 66%)"/><circle cx="66.2" cy="64.9" r="3.1" fill="hsl(179 66% 56%)"/><circle cx="54.3" cy="80.0" r="1.9" fill="hsl(91 62% 68%)"/><circle cx="32.7" cy="70.1" r="2.5" fill="hsl(139 74% 66%)"/><circle cx="27.6" cy="49.2" r="1.7" fill="hsl(91 62% 68%)"/><circle cx="53.3" cy="47.4" r="2" fill="hsl(179 74% 82%)"/></svg><rect x="340" y="502" width="150" height="150" rx="8" fill="#141318" stroke="#2a2832"/><svg x="340" y="502" width="150" height="150" viewBox="0 0 100 100"><circle cx="50" cy="50" r="46.5" fill="none" stroke="hsl(205 60% 55%)" stroke-width="0.8" opacity="0.3"/><polygon points="43.7,68.2 30.1,54.2 29.3,43.6 44.0,21.4 68.3,30.7 71.6,49.2 63.3,70.2" fill="hsl(205 60% 52% / 0.16)" stroke="hsl(205 74% 66%)" stroke-width="1.4" stroke-linejoin="round"/><line x1="43.7" y1="68.2" x2="29.3" y2="43.6" stroke="hsl(157 62% 68%)" stroke-width="0.8" opacity="0.7"/><line x1="30.1" y1="54.2" x2="44.0" y2="21.4" stroke="hsl(245 66% 56%)" stroke-width="0.8" opacity="0.7"/><line x1="29.3" y1="43.6" x2="68.3" y2="30.7" stroke="hsl(245 66% 56%)" stroke-width="0.8" opacity="0.7"/><line x1="44.0" y1="21.4" x2="71.6" y2="49.2" stroke="hsl(245 66% 56%)" stroke-width="0.8" opacity="0.7"/><line x1="68.3" y1="30.7" x2="63.3" y2="70.2" stroke="hsl(205 74% 66%)" stroke-width="0.8" opacity="0.7"/><line x1="71.6" y1="49.2" x2="43.7" y2="68.2" stroke="hsl(205 74% 66%)" stroke-width="0.8" opacity="0.7"/><line x1="63.3" y1="70.2" x2="30.1" y2="54.2" stroke="hsl(157 62% 68%)" stroke-width="0.8" opacity="0.7"/><circle cx="43.7" cy="68.2" r="2.4" fill="hsl(245 66% 56%)"/><circle cx="30.1" cy="54.2" r="1.5" fill="hsl(205 74% 66%)"/><circle cx="29.3" cy="43.6" r="2.0" fill="hsl(245 66% 56%)"/><circle cx="44.0" cy="21.4" r="2.2" fill="hsl(205 74% 66%)"/><circle cx="68.3" cy="30.7" r="2.6" fill="hsl(205 74% 66%)"/><circle cx="71.6" cy="49.2" r="2.3" fill="hsl(205 74% 66%)"/><circle cx="63.3" cy="70.2" r="2.7" fill="hsl(245 66% 56%)"/><circle cx="46.7" cy="45.4" r="3" fill="hsl(245 74% 82%)"/></svg><rect x="502" y="502" width="150" height="150" rx="8" fill="#141318" stroke="#2a2832"/><svg x="502" y="502" width="150" height="150" viewBox="0 0 100 100"><circle cx="50" cy="50" r="46.5" fill="none" stroke="hsl(327 60% 55%)" stroke-width="0.8" opacity="0.3"/><polygon points="39.3,33.0 49.6,18.0 74.3,30.2 82.5,52.7 83.7,67.0 54.0,67.1 44.5,66.6 19.9,68.9 16.8,34.6" fill="hsl(327 60% 52% / 0.16)" stroke="hsl(327 74% 66%)" stroke-width="1.4" stroke-linejoin="round"/><line x1="39.3" y1="33.0" x2="44.5" y2="66.6" stroke="hsl(279 62% 68%)" stroke-width="0.8" opacity="0.7"/><line x1="49.6" y1="18.0" x2="19.9" y2="68.9" stroke="hsl(279 62% 68%)" stroke-width="0.8" opacity="0.7"/><line x1="74.3" y1="30.2" x2="16.8" y2="34.6" stroke="hsl(327 74% 66%)" stroke-width="0.8" opacity="0.7"/><line x1="82.5" y1="52.7" x2="39.3" y2="33.0" stroke="hsl(327 74% 66%)" stroke-width="0.8" opacity="0.7"/><line x1="83.7" y1="67.0" x2="49.6" y2="18.0" stroke="hsl(7 66% 56%)" stroke-width="0.8" opacity="0.7"/><line x1="54.0" y1="67.1" x2="74.3" y2="30.2" stroke="hsl(7 66% 56%)" stroke-width="0.8" opacity="0.7"/><line x1="44.5" y1="66.6" x2="82.5" y2="52.7" stroke="hsl(279 62% 68%)" stroke-width="0.8" opacity="0.7"/><line x1="19.9" y1="68.9" x2="83.7" y2="67.0" stroke="hsl(279 62% 68%)" stroke-width="0.8" opacity="0.7"/><line x1="16.8" y1="34.6" x2="54.0" y2="67.1" stroke="hsl(327 74% 66%)" stroke-width="0.8" opacity="0.7"/><circle cx="39.3" cy="33.0" r="2.4" fill="hsl(7 66% 56%)"/><circle cx="49.6" cy="18.0" r="2.0" fill="hsl(327 74% 66%)"/><circle cx="74.3" cy="30.2" r="2.1" fill="hsl(327 74% 66%)"/><circle cx="82.5" cy="52.7" r="2.1" fill="hsl(327 74% 66%)"/><circle cx="83.7" cy="67.0" r="2.2" fill="hsl(7 66% 56%)"/><circle cx="54.0" cy="67.1" r="2.3" fill="hsl(327 74% 66%)"/><circle cx="44.5" cy="66.6" r="3.1" fill="hsl(327 74% 66%)"/><circle cx="19.9" cy="68.9" r="1.7" fill="hsl(279 62% 68%)"/><circle cx="16.8" cy="34.6" r="2.7" fill="hsl(327 74% 66%)"/><circle cx="50.8" cy="48.3" r="2" fill="hsl(7 74% 82%)"/></svg><rect x="664" y="502" width="150" height="150" rx="8" fill="#141318" stroke="#2a2832"/><svg x="664" y="502" width="150" height="150" viewBox="0 0 100 100"><circle cx="50" cy="50" r="46.5" fill="none" stroke="hsl(172 60% 55%)" stroke-width="0.8" opacity="0.3"/><polygon points="52.6,29.5 77.8,22.1 80.9,41.2 80.9,77.0 52.9,68.6 34.3,86.7 33.6,57.6 28.1,50.1 19.4,37.4" fill="hsl(172 60% 52% / 0.16)" stroke="hsl(172 74% 66%)" stroke-width="1.4" stroke-linejoin="round"/><line x1="52.6" y1="29.5" x2="80.9" y2="77.0" stroke="hsl(124 62% 68%)" stroke-width="0.8" opacity="0.7"/><line x1="77.8" y1="22.1" x2="52.9" y2="68.6" stroke="hsl(212 66% 56%)" stroke-width="0.8" opacity="0.7"/><line x1="80.9" y1="41.2" x2="34.3" y2="86.7" stroke="hsl(124 62% 68%)" stroke-width="0.8" opacity="0.7"/><line x1="80.9" y1="77.0" x2="33.6" y2="57.6" stroke="hsl(124 62% 68%)" stroke-width="0.8" opacity="0.7"/><line x1="52.9" y1="68.6" x2="28.1" y2="50.1" stroke="hsl(172 74% 66%)" stroke-width="0.8" opacity="0.7"/><line x1="34.3" y1="86.7" x2="19.4" y2="37.4" stroke="hsl(172 74% 66%)" stroke-width="0.8" opacity="0.7"/><line x1="33.6" y1="57.6" x2="52.6" y2="29.5" stroke="hsl(124 62% 68%)" stroke-width="0.8" opacity="0.7"/><line x1="28.1" y1="50.1" x2="77.8" y2="22.1" stroke="hsl(124 62% 68%)" stroke-width="0.8" opacity="0.7"/><line x1="19.4" y1="37.4" x2="80.9" y2="41.2" stroke="hsl(212 66% 56%)" stroke-width="0.8" opacity="0.7"/><circle cx="52.6" cy="29.5" r="2.3" fill="hsl(124 62% 68%)"/><circle cx="77.8" cy="22.1" r="2.4" fill="hsl(212 66% 56%)"/><circle cx="80.9" cy="41.2" r="1.9" fill="hsl(172 74% 66%)"/><circle cx="80.9" cy="77.0" r="2.0" fill="hsl(172 74% 66%)"/><circle cx="52.9" cy="68.6" r="3.1" fill="hsl(124 62% 68%)"/><circle cx="34.3" cy="86.7" r="2.1" fill="hsl(124 62% 68%)"/><circle cx="33.6" cy="57.6" r="1.8" fill="hsl(172 74% 66%)"/><circle cx="28.1" cy="50.1" r="1.9" fill="hsl(172 74% 66%)"/><circle cx="19.4" cy="37.4" r="1.7" fill="hsl(124 62% 68%)"/><circle cx="46.2" cy="48.6" r="4" fill="hsl(212 74% 82%)"/></svg><rect x="826" y="502" width="150" height="150" rx="8" fill="#141318" stroke="#2a2832"/><svg x="826" y="502" width="150" height="150" viewBox="0 0 100 100"><circle cx="50" cy="50" r="46.5" fill="none" stroke="hsl(129 60% 55%)" stroke-width="0.8" opacity="0.3"/><polygon points="12.5,60.2 30.5,37.9 40.8,31.9 60.7,20.1 80.7,30.8 84.6,34.1 65.6,59.8 59.9,66.7 44.2,80.7 35.3,78.3" fill="hsl(129 60% 52% / 0.16)" stroke="hsl(129 74% 66%)" stroke-width="1.4" stroke-linejoin="round"/><line x1="12.5" y1="60.2" x2="80.7" y2="30.8" stroke="hsl(169 66% 56%)" stroke-width="0.8" opacity="0.7"/><line x1="30.5" y1="37.9" x2="84.6" y2="34.1" stroke="hsl(81 62% 68%)" stroke-width="0.8" opacity="0.7"/><line x1="40.8" y1="31.9" x2="65.6" y2="59.8" stroke="hsl(169 66% 56%)" stroke-width="0.8" opacity="0.7"/><line x1="60.7" y1="20.1" x2="59.9" y2="66.7" stroke="hsl(81 62% 68%)" stroke-width="0.8" opacity="0.7"/><line x1="80.7" y1="30.8" x2="44.2" y2="80.7" stroke="hsl(129 74% 66%)" stroke-width="0.8" opacity="0.7"/><line x1="84.6" y1="34.1" x2="35.3" y2="78.3" stroke="hsl(81 62% 68%)" stroke-width="0.8" opacity="0.7"/><line x1="65.6" y1="59.8" x2="12.5" y2="60.2" stroke="hsl(81 62% 68%)" stroke-width="0.8" opacity="0.7"/><line x1="59.9" y1="66.7" x2="30.5" y2="37.9" stroke="hsl(81 62% 68%)" stroke-width="0.8" opacity="0.7"/><line x1="44.2" y1="80.7" x2="40.8" y2="31.9" stroke="hsl(129 74% 66%)" stroke-width="0.8" opacity="0.7"/><line x1="35.3" y1="78.3" x2="60.7" y2="20.1" stroke="hsl(81 62% 68%)" stroke-width="0.8" opacity="0.7"/><circle cx="12.5" cy="60.2" r="2.0" fill="hsl(81 62% 68%)"/><circle cx="30.5" cy="37.9" r="2.5" fill="hsl(169 66% 56%)"/><circle cx="40.8" cy="31.9" r="3.0" fill="hsl(129 74% 66%)"/><circle cx="60.7" cy="20.1" r="3.2" fill="hsl(169 66% 56%)"/><circle cx="80.7" cy="30.8" r="2.9" fill="hsl(129 74% 66%)"/><circle cx="84.6" cy="34.1" r="2.6" fill="hsl(129 74% 66%)"/><circle cx="65.6" cy="59.8" r="2.0" fill="hsl(81 62% 68%)"/><circle cx="59.9" cy="66.7" r="2.1" fill="hsl(129 74% 66%)"/><circle cx="44.2" cy="80.7" r="1.9" fill="hsl(81 62% 68%)"/><circle cx="35.3" cy="78.3" r="2.4" fill="hsl(129 74% 66%)"/><circle cx="45.1" cy="46.6" r="4" fill="hsl(169 74% 82%)"/></svg></svg>
