<svg xmlns="http://www.w3.org/2000/svg" width="992" height="668" viewBox="0 0 992 668"><rect width="992" height="668" fill="#0b0b0d"/><rect x="16" y="16" width="150" height="150" rx="8" fill="#141318" stroke="#2a2832"/><svg x="16" y="16" width="150" height="150" viewBox="0 0 100 100"><circle cx="50" cy="50" r="46.5" fill="none" stroke="hsl(100 60% 55%)" stroke-width="0.8" opacity="0.3"/><polygon points="60.1,67.1 53.6,78.0 38.7,63.3 30.4,53.9 31.9,37.7 53.6,14.3 85.4,31.3 77.4,44.6" fill="hsl(100 60% 52% / 0.16)" stroke="hsl(100 74% 66%)" stroke-width="1.4" stroke-linejoin="round"/><line x1="60.1" y1="67.1" x2="31.9" y2="37.7" stroke="hsl(100 74% 66%)" stroke-width="0.8" opacity="0.7"/><line x1="53.6" y1="78.0" x2="53.6" y2="14.3" stroke="hsl(140 66% 56%)" stroke-width="0.8" opacity="0.7"/><line x1="38.7" y1="63.3" x2="85.4" y2="31.3" stroke="hsl(52 62% 68%)" stroke-width="0.8" opacity="0.7"/><line x1="30.4" y1="53.9" x2="77.4" y2="44.6" stroke="hsl(52 62% 68%)" stroke-width="0.8" opacity="0.7"/><line x1="31.9" y1="37.7" x2="60.1" y2="67.1" stroke="hsl(140 66% 56%)" stroke-width="0.8" opacity="0.7"/><line x1="53.6" y1="14.3" x2="53.6" y2="78.0" stroke="hsl(140 66% 56%)" stroke-width="0.8" opacity="0.7"/><line x1="85.4" y1="31.3" x2="38.7" y2="63.3" stroke="hsl(100 74% 66%)" stroke-width="0.8" opacity="0.7"/><line x1="77.4" y1="44.6" x2="30.4" y2="53.9" stroke="hsl(100 74% 66%)" stroke-width="0.8" opacity="0.7"/><circle cx="60.1" cy="67.1" r="2.6" fill="hsl(100 74% 66%)"/><circle cx="53.6" cy="78.0" r="1.7" fill="hsl(52 62% 68%)"/><circle cx="38.7" cy="63.3" r="2.6" fill="hsl(100 74% 66%)"/><circle cx="30.4" cy="53.9" r="2.1" fill="hsl(52 62% 68%)"/><circle cx="31.9" cy="37.7" r="2.9" fill="hsl(52 62% 68%)"/><circle cx="53.6" cy="14.3" r="2.1" fill="hsl(140 66% 56%)"/><circle cx="85.4" cy="31.3" r="1.6" fill="hsl(52 62% 68%)"/><circle cx="77.4" cy="44.6" r="2.5" fill="hsl(52 62% 68%)"/><circle cx="53.4" cy="46.7" r="2" fill="hsl(140 74% 82%)"/></svg><rect x="178" y="16" width="150" height="150" rx="8" fill="#141318" stroke="#2a2832"/><svg x="178" y="16" width="150" height="150" viewBox="0 0 100 100"><circle cx="50" cy="50" r="46.5" fill="none" stroke="hsl(53 60% 55%)" stroke-width="0.8" opacity="0.3"/><polygon points="32.6,71.8 26.0,32.3 59.9,27.2 65.5,44.3 55.9,63.2" fill="hsl(53 60% 52% / 0.16)" stroke="hsl(53 74% 66%)" stroke-width="1.4" stroke-linejoin="round"/><line x1="32.6" y1="71.8" x2="65.5" y2="44.3" stroke="hsl(93 66% 56%)" stroke-width="0.8" opacity="0.7"/><line x1="26.0" y1="32.3" x2="55.9" y2="63.2" stroke="hsl(93 66% 56%)" stroke-width="0.8" opacity="0.7"/><line x1="59.9" y1="27.2" x2="32.6" y2="71.8" stroke="hsl(53 74% 66%)" stroke-width="0.8" opacity="0.7"/><line x1="65.5" y1="44.3" x2="26.0" y2="32.3" stroke="hsl(5 62% 68%)" stroke-width="0.8" opacity="0.7"/><line x1="55.9" y1="63.2" x2="59.9" y2="27.2" stroke="hsl(5 62% 68%)" stroke-width="0.8" opacity="0.7"/><circle cx="32.6" cy="71.8" r="2.8" fill="hsl(93 66% 56%)"/><circle cx="26.0" cy="32.3" r="1.5" fill="hsl(5 62% 68%)"/><circle cx="59.9" cy="27.2" r="2.5" fill="hsl(5 62% 68%)"/><circle cx="65.5" cy="44.3" r="1.7" fill="hsl(5 62% 68%)"/><circle cx="55.9" cy="63.2" r="2.0" fill="hsl(5 62% 68%)"/><circle cx="48.2" cy="47.9" r="2" fill="hsl(93 74% 82%)"/></svg><rect x="340" y="16" width="150" height="150" rx="8" fill="#141318" stroke="#2a2832"/><svg x="340" y="16" width="150" height="150" viewBox="0 0 100 100"><circle cx="50" cy="50" r="46.5" fill="none" stroke="hsl(347 60% 55%)" stroke-width="0.8" opacity="0.3"/><polygon points="54.5,25.7 73.3,34.4 66.2,57.4 53.7,73.5 26.5,55.2 26.3,42.8" fill="hsl(347 60% 52% / 0.16)" stroke="hsl(347 74% 66%)" stroke-width="1.4" stroke-linejoin="round"/><line x1="54.5" y1="25.7" x2="66.2" y2="57.4" stroke="hsl(27 66% 56%)" stroke-width="0.8" opacity="0.7"/><line x1="73.3" y1="34.4" x2="53.7" y2="73.5" stroke="hsl(347 74% 66%)" stroke-width="0.8" opacity="0.7"/><line x1="66.2" y1="57.4" x2="26.5" y2="55.2" stroke="hsl(299 62% 68%)" stroke-width="0.8" opacity="0.7"/><line x1="53.7" y1="73.5" x2="26.3" y2="42.8" stroke="hsl(27 66% 56%)" stroke-width="0.8" opacity="0.7"/><line x1="26.5" y1="55.2" x2="54.5" y2="25.7" stroke="hsl(299 62% 68%)" stroke-width="0.8" opacity="0.7"/><line x1="26.3" y1="42.8" x2="73.3" y2="34.4" stroke="hsl(299 62% 68%)" stroke-width="0.8" opacity="0.7"/><circle cx="54.5" cy="25.7" r="1.6" fill="hsl(347 74% 66%)"/><circle cx="73.3" cy="34.4" r="2.6" fill="hsl(27 66% 56%)"/><circle cx="66.2" cy="57.4" r="2.5" fill="hsl(27 66% 56%)"/><circle cx="53.7" cy="73.5" r="3.1" fill="hsl(299 62% 68%)"/><circle cx="26.5" cy="55.2" r="1.9" fill="hsl(347 74% 66%)"/><circle cx="26.3" cy="42.8" r="1.8" fill="hsl(299 62% 68%)"/><circle cx="47.0" cy="54.6" r="3" fill="hsl(27 74% 82%)"/></svg><rect x="502" y="16" width="150" height="150" rx="8" fill="#141318" stroke="#2a2832"/><svg x="502" y="16" width="150" height="150" viewBox="0 0 100 100"><circle cx="50" cy="50" r="46.5" fill="none" stroke="hsl(227 60% 55%)" stroke-width="0.8" opacity="0.3"/><polygon points="49.3,73.0 26.9,62.0 27.6,42.5 57.6,23.9 71.6,56.3" fill="hsl(227 60% 52% / 0.16)" stroke="hsl(227 74% 66%)" stroke-width="1.4" stroke-linejoin="round"/><line x1="49.3" y1="73.0" x2="27.6" y2="42.5" stroke="hsl(227 74% 66%)" stroke-width="0.8" opacity="0.7"/><line x1="26.9" y1="62.0" x2="57.6" y2="23.9" stroke="hsl(179 62% 68%)" stroke-width="0.8" opacity="0.7"/><line x1="27.6" y1="42.5" x2="71.6" y2="56.3" stroke="hsl(179 62% 68%)" stroke-width="0.8" opacity="0.7"/><line x1="57.6" y1="23.9" x2="49.3" y2="73.0" stroke="hsl(267 66% 56%)" stroke-width="0.8" opacity="0.7"/><line x1="71.6" y1="56.3" x2="26.9" y2="62.0" stroke="hsl(267 66% 56%)" stroke-width="0.8" opacity="0.7"/><circle cx="49.3" cy="73.0" r="1.8" fill="hsl(179 62% 68%)"/><circle cx="26.9" cy="62.0" r="1.5" fill="hsl(267 66% 56%)"/><circle cx="27.6" cy="42.5" r="2.7" fill="hsl(179 62% 68%)"/><circle cx="57.6" cy="23.9" r="3.1" fill="hsl(179 62% 68%)"/><circle cx="71.6" cy="56.3" r="2.4" fill="hsl(267 66% 56%)"/><circle cx="46.3" cy="50.0" r="4" fill="hsl(267 74% 82%)"/></svg><rect x="664" y="16" width="150" height="150" rx="8" fill="#141318" stroke="#2a2832"/><svg x="664" y="16" width="150" height="150" viewBox="0 0 100 100"><circle cx="50" cy="50" r="46.5" fill="none" stroke="hsl(52 60% 55%)" stroke-width="0.8" opacity="0.3"/><polygon points="22.7,72.4 25.9,44.2 45.8,26.4 73.4,29.0 63.7,77.5" fill="hsl(52 60% 52% / 0.16)" stroke="hsl(52 74% 66%)" stroke-width="1.4" stroke-linejoin="round"/><line x1="22.7" y1="72.4" x2="73.4" y2="29.0" stroke="hsl(92 66% 56%)" stroke-width="0.8" opacity="0.7"/><line x1="25.9" y1="44.2" x2="63.7" y2="77.5" stroke="hsl(4 62% 68%)" stroke-width="0.8" opacity="0.7"/><line x1="45.8" y1="26.4" x2="22.7" y2="72.4" stroke="hsl(4 62% 68%)" stroke-width="0.8" opacity="0.7"/><line x1="73.4" y1="29.0" x2="25.9" y2="44.2" stroke="hsl(92 66% 56%)" stroke-width="0.8" opacity="0.7"/><line x1="63.7" y1="77.5" x2="45.8" y2="26.4" stroke="hsl(52 74% 66%)" stroke-width="0.8" opacity="0.7"/><circle cx="22.7" cy="72.4" r="2.1" fill="hsl(92 66% 56%)"/><circle cx="25.9" cy="44.2" r="2.6" fill="hsl(92 66% 56%)"/><circle cx="45.8" cy="26.4" r="1.8" fill="hsl(92 66% 56%)"/><circle cx="73.4" cy="29.0" r="1.8" fill="hsl(4 62% 68%)"/><circle cx="63.7" cy="77.5" r="2.8" fill="hsl(92 66% 56%)"/><circle cx="54.4" cy="52.9" r="3" fill="hsl(92 74% 82%)"/></svg><rect x="826" y="16" width="150" height="150" rx="8" fill="#141318" stroke="#2a2832"/><svg x="826" y="16" width="150" height="150" viewBox="0 0 100 100"><circle cx="50" cy="50" r="46.5" fill="none" stroke="hsl(352 60% 55%)" stroke-width="0.8" opacity="0.3"/><polygon points="67.1,64.8 65.7,74.7 37.1,76.2 28.7,37.6 46.4,20.8 76.0,39.3" fill="hsl(352 60% 52% / 0.16)" stroke="hsl(352 74% 66%)" stroke-width="1.4" stroke-linejoin="round"/><line x1="67.1" y1="64.8" x2="28.7" y2="37.6" stroke="hsl(352 74% 66%)" stroke-width="0.8" opacity="0.7"/><line x1="65.7" y1="74.7" x2="46.4" y2="20.8" stroke="hsl(352 74% 66%)" stroke-width="0.8" opacity="0.7"/><line x1="37.1" y1="76.2" x2="76.0" y2="39.3" stroke="hsl(304 62% 68%)" stroke-width="0.8" opacity="0.7"/><line x1="28.7" y1="37.6" x2="67.1" y2="64.8" stroke="hsl(304 62% 68%)" stroke-width="0.8" opacity="0.7"/><line x1="46.4" y1="20.8" x2="65.7" y2="74.7" stroke="hsl(352 74% 66%)" stroke-width="0.8" opacity="0.7"/><line x1="76.0" y1="39.3" x2="37.1" y2="76.2" stroke="hsl(32 66% 56%)" stroke-width="0.8" opacity="0.7"/><circle cx="67.1" cy="64.8" r="2.2" fill="hsl(352 74% 66%)"/><circle cx="65.7" cy="74.7" r="3.2" fill="hsl(32 66% 56%)"/><circle cx="37.1" cy="76.2" r="2.8" fill="hsl(304 62% 68%)"/><circle cx="28.7" cy="37.6" r="2.5" fill="hsl(352 74% 66%)"/><circle cx="46.4" cy="20.8" r="1.5" fill="hsl(352 74% 66%)"/><circle cx="76.0" cy="39.3" r="3.0" fill="hsl(352 74% 66%)"/><circle cx="45.0" cy="52.2" r="3" fill="hsl(32 74% 82%)"/></svg><rect x="16" y="178" width="150" height="150" rx="8" fill="#141318" stroke="#2a2832"/><svg x="16" y="178" width="150" height="150" viewBox="0 0 100 100"><circle cx="50" cy="50" r="46.5" fill="none" stroke="hsl(357 60% 55%)" stroke-width="0.8" opacity="0.3"/><polygon points="51.6,31.9 64.6,41.9 80.0,44.6 68.2,63.8 51.3,72.3 42.8,64.0 19.0,53.1 35.8,46.8 49.4,30.4" fill="hsl(357 60% 52% / 0.16)" stroke="hsl(357 74% 66%)" stroke-width="1.4" stroke-linejoin="round"/><line x1="51.6" y1="31.9" x2="42.8" y2="64.0" stroke="hsl(37 66% 56%)" stroke-width="0.8" opacity="0.7"/><line x1="64.6" y1="41.9" x2="19.0" y2="53.1" stroke="hsl(309 62% 68%)" stroke-width="0.8" opacity="0.7"/><line x1="80.0" y1="44.6" x2="35.8" y2="46.8" stroke="hsl(309 62% 68%)" stroke-width="0.8" opacity="0.7"/><line x1="68.2" y1="63.8" x2="49.4" y2="30.4" stroke="hsl(357 74% 66%)" stroke-width="0.8" opacity="0.7"/><line x1="51.3" y1="72.3" x2="51.6" y2="31.9" stroke="hsl(309 62% 68%)" stroke-width="0.8" opacity="0.7"/><line x1="42.8" y1="64.0" x2="64.6" y2="41.9" stroke="hsl(37 66% 56%)" stroke-width="0.8" opacity="0.7"/><line x1="19.0" y1="53.1" x2="80.0" y2="44.6" stroke="hsl(37 66% 56%)" stroke-width="0.8" opacity="0.7"/><line x1="35.8" y1="46.8" x2="68.2" y2="63.8" stroke="hsl(309 62% 68%)" stroke-width="0.8" opacity="0.7"/><line x1="49.4" y1="30.4" x2="51.3" y2="72.3" stroke="hsl(357 74% 66%)" stroke-width="0.8" opacity="0.7"/><circle cx="51.6" cy="31.9" r="2.4" fill="hsl(309 62% 68%)"/><circle cx="64.6" cy="41.9" r="2.5" fill="hsl(357 74% 66%)"/><circle cx="80.0" cy="44.6" r="2.1" fill="hsl(357 74% 66%)"/><circle cx="68.2" cy="63.8" r="1.9" fill="hsl(37 66% 56%)"/><circle cx="51.3" cy="72.3" r="2.2" fill="hsl(37 66% 56%)"/><circle cx="42.8" cy="64.0" r="1.7" fill="hsl(37 66% 56%)"/><circle cx="19.0" cy="53.1" r="1.7" fill="hsl(357 74% 66%)"/><circle cx="35.8" cy="46.8" r="3.0" fill="hsl(357 74% 66%)"/><circle cx="49.4" cy="30.4" r="2.6" fill="hsl(357 74% 66%)"/><circle cx="45.6" cy="49.3" r="2" fill="hsl(37 74% 82%)"/></svg><rect x="178" y="178" width="150" height="150" rx="8" fill="#141318" stroke="#2a2832"/><svg x="178" y="178" width="150" height="150" viewBox="0 0 100 100"><circle cx="50" cy="50" r="46.5" fill="none" stroke="hsl(205 60% 55%)" stroke-width="0.8" opacity="0.3"/><polygon points="57.1,32.9 84.2,68.1 59.0,79.6 21.4,60.4 31.9,35.3" fill="hsl(205 60% 52% / 0.16)" stroke="hsl(205 74% 66%)" stroke-width="1.4" stroke-linejoin="round"/><line x1="57.1" y1="32.9" x2="21.4" y2="60.4" stroke="hsl(157 62% 68%)" stroke-width="0.8" opacity="0.7"/><line x1="84.2" y1="68.1" x2="31.9" y2="35.3" stroke="hsl(245 66% 56%)" stroke-width="0.8" opacity="0.7"/><line x1="59.0" y1="79.6" x2="57.1" y2="32.9" stroke="hsl(157 62% 68%)" stroke-width="0.8" opacity="0.7"/><line x1="21.4" y1="60.4" x2="84.2" y2="68.1" stroke="hsl(245 66% 56%)" stroke-width="0.8" opacity="0.7"/><line x1="31.9" y1="35.3" x2="59.0" y2="79.6" stroke="hsl(157 62% 68%)" stroke-width="0.8" opacity="0.7"/><circle cx="57.1" cy="32.9" r="1.7" fill="hsl(205 74% 66%)"/><circle cx="84.2" cy="68.1" r="2.7" fill="hsl(205 74% 66%)"/><circle cx="59.0" cy="79.6" r="2.9" fill="hsl(245 66% 56%)"/><circle cx="21.4" cy="60.4" r="1.7" fill="hsl(205 74% 66%)"/><circle cx="31.9" cy="35.3" r="1.8" fill="hsl(245 66% 56%)"/><circle cx="45.8" cy="49.8" r="4" fill="hsl(245 74% 82%)"/></svg><rect x="340" y="178" width="150" height="150" rx="8" fill="#141318" stroke="#2a2832"/><svg x="340" y="178" width="150" height="150" viewBox="0 0 100 100"><circle cx="50" cy="50" r="46.5" fill="none" stroke="hsl(241 60% 55%)" stroke-width="0.8" opacity="0.3"/><polygon points="67.3,59.5 41.0,72.8 30.2,51.9 40.8,28.3 49.8,26.2 67.0,49.7" fill="hsl(241 60% 52% / 0.16)" stroke="hsl(241 74% 66%)" stroke-width="1.4" stroke-linejoin="round"/><line x1="67.3" y1="59.5" x2="49.8" y2="26.2" stroke="hsl(281 66% 56%)" stroke-width="0.8" opacity="0.7"/><line x1="41.0" y1="72.8" x2="67.0" y2="49.7" stroke="hsl(193 62% 68%)" stroke-width="0.8" opacity="0.7"/><line x1="30.2" y1="51.9" x2="67.3" y2="59.5" stroke="hsl(281 66% 56%)" stroke-width="0.8" opacity="0.7"/><line x1="40.8" y1="28.3" x2="41.0" y2="72.8" stroke="hsl(241 74% 66%)" stroke-width="0.8" opacity="0.7"/><line x1="49.8" y1="26.2" x2="30.2" y2="51.9" stroke="hsl(281 66% 56%)" stroke-width="0.8" opacity="0.7"/><line x1="67.0" y1="49.7" x2="40.8" y2="28.3" stroke="hsl(241 74% 66%)" stroke-width="0.8" opacity="0.7"/><circle cx="67.3" cy="59.5" r="1.6" fill="hsl(241 74% 66%)"/><circle cx="41.0" cy="72.8" r="1.6" fill="hsl(241 74% 66%)"/><circle cx="30.2" cy="51.9" r="2.1" fill="hsl(193 62% 68%)"/><circle cx="40.8" cy="28.3" r="2.7" fill="hsl(281 66% 56%)"/><circle cx="49.8" cy="26.2" r="1.7" fill="hsl(193 62% 68%)"/><circle cx="67.0" cy="49.7" r="1.8" fill="hsl(193 62% 68%)"/><circle cx="54.9" cy="50.0" r="3" fill="hsl(281 74% 82%)"/></svg><rect x="502" y="178" width="150" height="150" rx="8" fill="#141318" stroke="#2a2832"/><svg x="502" y="178" width="150" height="150" viewBox="0 0 100 100"><circle cx="50" cy="50" r="46.5" fill="none" stroke="hsl(154 60% 55%)" stroke-width="0.8" opacity="0.3"/><polygon points="41.0,34.3 68.6,29.4 66.1,52.8 53.9,65.8 17.7,55.8" fill="hsl(154 60% 52% / 0.16)" stroke="hsl(154 74% 66%)" stroke-width="1.4" stroke-linejoin="round"/><line x1="41.0" y1="34.3" x2="66.1" y2="52.8" stroke="hsl(194 66% 56%)" stroke-width="0.8" opacity="0.7"/><line x1="68.6" y1="29.4" x2="53.9" y2="65.8" stroke="hsl(106 62% 68%)" stroke-width="0.8" opacity="0.7"/><line x1="66.1" y1="52.8" x2="17.7" y2="55.8" stroke="hsl(194 66% 56%)" stroke-width="0.8" opacity="0.7"/><line x1="53.9" y1="65.8" x2="41.0" y2="34.3" stroke="hsl(194 66% 56%)" stroke-width="0.8" opacity="0.7"/><line x1="17.7" y1="55.8" x2="68.6" y2="29.4" stroke="hsl(106 62% 68%)" stroke-width="0.8" opacity="0.7"/><circle cx="41.0" cy="34.3" r="2.1" fill="hsl(154 74% 66%)"/><circle cx="68.6" cy="29.4" r="1.9" fill="hsl(194 66% 56%)"/><circle cx="66.1" cy="52.8" r="2.2" fill="hsl(106 62% 68%)"/><circle cx="53.9" cy="65.8" r="3.1" fill="hsl(106 62% 68%)"/><circle cx="17.7" cy="55.8" r="2.9" fill="hsl(154 74% 66%)"/><circle cx="45.6" cy="50.0" r="2" fill="hsl(194 74% 82%)"/></svg><rect x="664" y="178" width="150" height="150" rx="8" fill="#141318" stroke="#2a2832"/><svg x="664" y="178" width="150" height="150" viewBox="0 0 100 100"><circle cx="50" cy="50" r="46.5" fill="none" stroke="hsl(309 60% 55%)" stroke-width="0.8" opacity="0.3"/><polygon points="64.1,47.8 79.8,66.2 64.0,72.7 45.2,70.2 36.5,66.7 17.7,52.6 24.5,39.4 43.4,33.6 55.1,31.1 61.5,36.4" fill="hsl(309 60% 52% / 0.16)" stroke="hsl(309 74% 66%)" stroke-width="1.4" stroke-linejoin="round"/><line x1="64.1" y1="47.8" x2="45.2" y2="70.2" stroke="hsl(309 74% 66%)" stroke-width="0.8" opacity="0.7"/><line x1="79.8" y1="66.2" x2="36.5" y2="66.7" stroke="hsl(261 62% 68%)" stroke-width="0.8" opacity="0.7"/><line x1="64.0" y1="72.7" x2="17.7" y2="52.6" stroke="hsl(261 62% 68%)" stroke-width="0.8" opacity="0.7"/><line x1="45.2" y1="70.2" x2="24.5" y2="39.4" stroke="hsl(349 66% 56%)" stroke-width="0.8" opacity="0.7"/><line x1="36.5" y1="66.7" x2="43.4" y2="33.6" stroke="hsl(309 74% 66%)" stroke-width="0.8" opacity="0.7"/><line x1="17.7" y1="52.6" x2="55.1" y2="31.1" stroke="hsl(309 74% 66%)" stroke-width="0.8" opacity="0.7"/><line x1="24.5" y1="39.4" x2="61.5" y2="36.4" stroke="hsl(309 74% 66%)" stroke-width="0.8" opacity="0.7"/><line x1="43.4" y1="33.6" x2="64.1" y2="47.8" stroke="hsl(349 66% 56%)" stroke-width="0.8" opacity="0.7"/><line x1="55.1" y1="31.1" x2="79.8" y2="66.2" stroke="hsl(349 66% 56%)" stroke-width="0.8" opacity="0.7"/><line x1="61.5" y1="36.4" x2="64.0" y2="72.7" stroke="hsl(349 66% 56%)" stroke-width="0.8" opacity="0.7"/><circle cx="64.1" cy="47.8" r="2.8" fill="hsl(261 62% 68%)"/><circle cx="79.8" cy="66.2" r="1.7" fill="hsl(261 62% 68%)"/><circle cx="64.0" cy="72.7" r="2.1" fill="hsl(349 66% 56%)"/><circle cx="45.2" cy="70.2" r="2.6" fill="hsl(349 66% 56%)"/><circle cx="36.5" cy="66.7" r="2.5" fill="hsl(309 74% 66%)"/><circle cx="17.7" cy="52.6" r="2.1" fill="hsl(309 74% 66%)"/><circle cx="24.5" cy="39.4" r="2.7" fill="hsl(261 62% 68%)"/><circle cx="43.4" cy="33.6" r="1.5" fill="hsl(309 74% 66%)"/><circle cx="55.1" cy="31.1" r="2.4" fill="hsl(261 62% 68%)"/><circle cx="61.5" cy="36.4" r="1.9" fill="hsl(309 74% 66%)"/><circle cx="47.7" cy="54.4" r="3" fill="hsl(349 74% 82%)"/></svg><rect x="826" y="178" width="150" height="150" rx="8" fill="#141318" stroke="#2a2832"/><svg x="826" y="178" width="150" height="150" viewBox="0 0 100 100"><circle cx="50" cy="50" r="46.5" fill="none" stroke="hsl(252 60% 55%)" stroke-width="0.8" opacity="0.3"/><polygon points="77.4,37.2 78.4,52.1 66.1,64.1 54.0,77.4 38.5,71.5 31.0,59.5 26.2,49.6 26.6,29.4 40.0,18.8 60.6,27.0" fill="hsl(252 60% 52% / 0.16)" stroke="hsl(252 74% 66%)" stroke-width="1.4" stroke-linejoin="round"/><line x1="77.4" y1="37.2" x2="31.0" y2="59.5" stroke="hsl(292 66% 56%)" stroke-width="0.8" opacity="0.7"/><line x1="78.4" y1="52.1" x2="26.2" y2="49.6" stroke="hsl(252 74% 66%)" stroke-width="0.8" opacity="0.7"/><line x1="66.1" y1="64.1" x2="26.6" y2="29.4" stroke="hsl(292 66% 56%)" stroke-width="0.8" opacity="0.7"/><line x1="54.0" y1="77.4" x2="40.0" y2="18.8" stroke="hsl(292 66% 56%)" stroke-width="0.8" opacity="0.7"/><line x1="38.5" y1="71.5" x2="60.6" y2="27.0" stroke="hsl(204 62% 68%)" stroke-width="0.8" opacity="0.7"/><line x1="31.0" y1="59.5" x2="77.4" y2="37.2" stroke="hsl(292 66% 56%)" stroke-width="0.8" opacity="0.7"/><line x1="26.2" y1="49.6" x2="78.4" y2="52.1" stroke="hsl(252 74% 66%)" stroke-width="0.8" opacity="0.7"/><line x1="26.6" y1="29.4" x2="66.1" y2="64.1" stroke="hsl(252 74% 66%)" stroke-width="0.8" opacity="0.7"/><line x1="40.0" y1="18.8" x2="54.0" y2="77.4" stroke="hsl(292 66% 56%)" stroke-width="0.8" opacity="0.7"/><line x1="60.6" y1="27.0" x2="38.5" y2="71.5" stroke="hsl(292 66% 56%)" stroke-width="0.8" opacity="0.7"/><circle cx="77.4" cy="37.2" r="1.9" fill="hsl(292 66% 56%)"/><circle cx="78.4" cy="52.1" r="2.3" fill="hsl(204 62% 68%)"/><circle cx="66.1" cy="64.1" r="2.4" fill="hsl(252 74% 66%)"/><circle cx="54.0" cy="77.4" r="2.0" fill="hsl(252 74% 66%)"/><circle cx="38.5" cy="71.5" r="2.0" fill="hsl(292 66% 56%)"/><circle cx="31.0" cy="59.5" r="3.1" fill="hsl(252 74% 66%)"/><circle cx="26.2" cy="49.6" r="1.7" fill="hsl(252 74% 66%)"/><circle cx="26.6" cy="29.4" r="3.0" fill="hsl(292 66% 56%)"/><circle cx="40.0" cy="18.8" r="2.9" fill="hsl(252 74% 66%)"/><circle cx="60.6" cy="27.0" r="3.0" fill="hsl(252 74% 66%)"/><circle cx="47.0" cy="50.3" r="2" fill="hsl(292 74% 82%)"/></svg><rect x="16" y="340" width="150" height="150" rx="8" fill="#141318" stroke="#2a2832"/><svg x="16" y="340" width="150" height="150" viewBox="0 0 100 100"><circle cx="50" cy="50" r="46.5" fill="none" stroke="hsl(292 60% 55%)" stroke-width="0.8" opacity="0.3"/><polygon points="50.1,33.3 74.5,31.9 73.6,65.6 47.2,72.8 22.3,63.8 33.8,35.2" fill="hsl(292 60% 52% / 0.16)" stroke="hsl(292 74% 66%)" stroke-width="1.4" stroke-linejoin="round"/><line x1="50.1" y1="33.3" x2="47.2" y2="72.8" stroke="hsl(292 74% 66%)" stroke-width="0.8" opacity="0.7"/><line x1="74.5" y1="31.9" x2="22.3" y2="63.8" stroke="hsl(332 66% 56%)" stroke-width="0.8" opacity="0.7"/><line x1="73.6" y1="65.6" x2="33.8" y2="35.2" stroke="hsl(244 62% 68%)" stroke-width="0.8" opacity="0.7"/><line x1="47.2" y1="72.8" x2="50.1" y2="33.3" stroke="hsl(332 66% 56%)" stroke-width="0.8" opacity="0.7"/><line x1="22.3" y1="63.8" x2="74.5" y2="31.9" stroke="hsl(332 66% 56%)" stroke-width="0.8" opacity="0.7"/><line x1="33.8" y1="35.2" x2="73.6" y2="65.6" stroke="hsl(244 62% 68%)" stroke-width="0.8" opacity="0.7"/><circle cx="50.1" cy="33.3" r="1.6" fill="hsl(244 62% 68%)"/><circle cx="74.5" cy="31.9" r="2.6" fill="hsl(292 74% 66%)"/><circle cx="73.6" cy="65.6" r="1.8" fill="hsl(332 66% 56%)"/><circle cx="47.2" cy="72.8" r="2.7" fill="hsl(332 66% 56%)"/><circle cx="22.3" cy="63.8" r="2.1" fill="hsl(332 66% 56%)"/><circle cx="33.8" cy="35.2" r="3.0" fill="hsl(244 62% 68%)"/><circle cx="53.3" cy="50.9" r="3" fill="hsl(332 74% 82%)"/></svg><rect x="178" y="340" width="150" height="150" rx="8" fill="#141318" stroke="#2a2832"/><svg x="178" y="340" width="150" height="150" viewBox="0 0 100 100"><circle cx="50" cy="50" r="46.5" fill="none" stroke="hsl(296 60% 55%)" stroke-width="0.8" opacity="0.3"/><polygon points="62.7,62.5 45.8,66.3 33.8,53.9 40.7,34.8 62.8,37.0" fill="hsl(296 60% 52% / 0.16)" stroke="hsl(296 74% 66%)" stroke-width="1.4" stroke-linejoin="round"/><line x1="62.7" y1="62.5" x2="40.7" y2="34.8" stroke="hsl(248 62% 68%)" stroke-width="0.8" opacity="0.7"/><line x1="45.8" y1="66.3" x2="62.8" y2="37.0" stroke="hsl(248 62% 68%)" stroke-width="0.8" opacity="0.7"/><line x1="33.8" y1="53.9" x2="62.7" y2="62.5" stroke="hsl(336 66% 56%)" stroke-width="0.8" opacity="0.7"/><line x1="40.7" y1="34.8" x2="45.8" y2="66.3" stroke="hsl(248 62% 68%)" stroke-width="0.8" opacity="0.7"/><line x1="62.8" y1="37.0" x2="33.8" y2="53.9" stroke="hsl(336 66% 56%)" stroke-width="0.8" opacity="0.7"/><circle cx="62.7" cy="62.5" r="2.7" fill="hsl(296 74% 66%)"/><circle cx="45.8" cy="66.3" r="2.8" fill="hsl(336 66% 56%)"/><circle cx="33.8" cy="53.9" r="2.8" fill="hsl(296 74% 66%)"/><circle cx="40.7" cy="34.8" r="2.3" fill="hsl(336 66% 56%)"/><circle cx="62.8" cy="37.0" r="2.1" fill="hsl(248 62% 68%)"/><circle cx="51.3" cy="53.9" r="2" fill="hsl(336 74% 82%)"/></svg><rect x="340" y="340" width="150" height="150" rx="8" fill="#141318" stroke="#2a2832"/><svg x="340" y="340" width="150" height="150" viewBox="0 0 100 100"><circle cx="50" cy="50" r="46.5" fill="none" stroke="hsl(109 60% 55%)" stroke-width="0.8" opacity="0.3"/><polygon points="84.2,60.5 59.3,71.4 45.8,67.3 19.4,65.6 29.4,43.1 29.4,19.2 60.9,26.2 74.5,38.7" fill="hsl(109 60% 52% / 0.16)" stroke="hsl(109 74% 66%)" stroke-width="1.4" stroke-linejoin="round"/><line x1="84.2" y1="60.5" x2="29.4" y2="19.2" stroke="hsl(61 62% 68%)" stroke-width="0.8" opacity="0.7"/><line x1="59.3" y1="71.4" x2="60.9" y2="26.2" stroke="hsl(109 74% 66%)" stroke-width="0.8" opacity="0.7"/><line x1="45.8" y1="67.3" x2="74.5" y2="38.7" stroke="hsl(109 74% 66%)" stroke-width="0.8" opacity="0.7"/><line x1="19.4" y1="65.6" x2="84.2" y2="60.5" stroke="hsl(61 62% 68%)" stroke-width="0.8" opacity="0.7"/><line x1="29.4" y1="43.1" x2="59.3" y2="71.4" stroke="hsl(149 66% 56%)" stroke-width="0.8" opacity="0.7"/><line x1="29.4" y1="19.2" x2="45.8" y2="67.3" stroke="hsl(149 66% 56%)" stroke-width="0.8" opacity="0.7"/><line x1="60.9" y1="26.2" x2="19.4" y2="65.6" stroke="hsl(149 66% 56%)" stroke-width="0.8" opacity="0.7"/><line x1="74.5" y1="38.7" x2="29.4" y2="43.1" stroke="hsl(109 74% 66%)" stroke-width="0.8" opacity="0.7"/><circle cx="84.2" cy="60.5" r="2.5" fill="hsl(109 74% 66%)"/><circle cx="59.3" cy="71.4" r="1.5" fill="hsl(109 74% 66%)"/><circle cx="45.8" cy="67.3" r="1.5" fill="hsl(61 62% 68%)"/><circle cx="19.4" cy="65.6" r="2.7" fill="hsl(61 62% 68%)"/><circle cx="29.4" cy="43.1" r="2.8" fill="hsl(109 74% 66%)"/><circle cx="29.4" cy="19.2" r="2.8" fill="hsl(149 66% 56%)"/><circle cx="60.9" cy="26.2" r="1.8" fill="hsl(109 74% 66%)"/><circle cx="74.5" cy="38.7" r="1.8" fill="hsl(61 62% 68%)"/><circle cx="47.7" cy="46.8" r="2" fill="hsl(149 74% 82%)"/></svg><rect x="502" y="340" width="150" height="150" rx="8" fill="#141318" stroke="#2a2832"/><svg x="502" y="340" width="150" height="150" viewBox="0 0 100 100"><circle cx="50" cy="50" r="46.5" fill="none" stroke="hsl(345 60% 55%)" stroke-width="0.8" opacity="0.3"/><polygon points="30.1,64.2 40.3,40.1 59.8,35.2 65.0,40.3 64.8,65.7 44.2,63.4" fill="hsl(345 60% 52% / 0.16)" stroke="hsl(345 74% 66%)" stroke-width="1.4" stroke-linejoin="round"/><line x1="30.1" y1="64.2" x2="64.8" y2="65.7" stroke="hsl(345 74% 66%)" stroke-width="0.8" opacity="0.7"/><line x1="40.3" y1="40.1" x2="44.2" y2="63.4" stroke="hsl(297 62% 68%)" stroke-width="0.8" opacity="0.7"/><line x1="59.8" y1="35.2" x2="30.1" y2="64.2" stroke="hsl(297 62% 68%)" stroke-width="0.8" opacity="0.7"/><line x1="65.0" y1="40.3" x2="40.3" y2="40.1" stroke="hsl(25 66% 56%)" stroke-width="0.8" opacity="0.7"/><line x1="64.8" y1="65.7" x2="59.8" y2="35.2" stroke="hsl(345 74% 66%)" stroke-width="0.8" opacity="0.7"/><line x1="44.2" y1="63.4" x2="65.0" y2="40.3" stroke="hsl(297 62% 68%)" stroke-width="0.8" opacity="0.7"/><circle cx="30.1" cy="64.2" r="1.5" fill="hsl(297 62% 68%)"/><circle cx="40.3" cy="40.1" r="2.5" fill="hsl(297 62% 68%)"/><circle cx="59.8" cy="35.2" r="2.5" fill="hsl(297 62% 68%)"/><circle cx="65.0" cy="40.3" r="3.2" fill="hsl(345 74% 66%)"/><circle cx="64.8" cy="65.7" r="1.9" fill="hsl(345 74% 66%)"/><circle cx="44.2" cy="63.4" r="2.3" fill="hsl(25 66% 56%)"/><circle cx="51.7" cy="46.9" r="4" fill="hsl(25 74% 82%)"/></svg><rect x="664" y="340" width="150" height="150" rx="8" fill="#141318" stroke="#2a2832"/><svg x="664" y="340" width="150" height="150" viewBox="0 0 100 100"><circle cx="50" cy="50" r="46.5" fill="none" stroke="hsl(254 60% 55%)" stroke-width="0.8" opacity="0.3"/><polygon points="65.3,35.2 81.6,44.9 67.3,60.1 62.4,79.2 40.8,80.2 36.4,62.1 35.7,52.7 35.9,39.4 34.5,24.6 57.2,25.3" fill="hsl(254 60% 52% / 0.16)" stroke="hsl(254 74% 66%)" stroke-width="1.4" stroke-linejoin="round"/><line x1="65.3" y1="35.2" x2="62.4" y2="79.2" stroke="hsl(294 66% 56%)" stroke-width="0.8" opacity="0.7"/><line x1="81.6" y1="44.9" x2="40.8" y2="80.2" stroke="hsl(206 62% 68%)" stroke-width="0.8" opacity="0.7"/><line x1="67.3" y1="60.1" x2="36.4" y2="62.1" stroke="hsl(294 66% 56%)" stroke-width="0.8" opacity="0.7"/><line x1="62.4" y1="79.2" x2="35.7" y2="52.7" stroke="hsl(254 74% 66%)" stroke-width="0.8" opacity="0.7"/><line x1="40.8" y1="80.2" x2="35.9" y2="39.4" stroke="hsl(294 66% 56%)" stroke-width="0.8" opacity="0.7"/><line x1="36.4" y1="62.1" x2="34.5" y2="24.6" stroke="hsl(294 66% 56%)" stroke-width="0.8" opacity="0.7"/><line x1="35.7" y1="52.7" x2="57.2" y2="25.3" stroke="hsl(294 66% 56%)" stroke-width="0.8" opacity="0.7"/><line x1="35.9" y1="39.4" x2="65.3" y2="35.2" stroke="hsl(254 74% 66%)" stroke-width="0.8" opacity="0.7"/><line x1="34.5" y1="24.6" x2="81.6" y2="44.9" stroke="hsl(254 74% 66%)" stroke-width="0.8" opacity="0.7"/><line x1="57.2" y1="25.3" x2="67.3" y2="60.1" stroke="hsl(254 74% 66%)" stroke-width="0.8" opacity="0.7"/><circle cx="65.3" cy="35.2" r="3.0" fill="hsl(294 66% 56%)"/><circle cx="81.6" cy="44.9" r="3.0" fill="hsl(254 74% 66%)"/><circle cx="67.3" cy="60.1" r="2.6" fill="hsl(254 74% 66%)"/><circle cx="62.4" cy="79.2" r="3.0" fill="hsl(294 66% 56%)"/><circle cx="40.8" cy="80.2" r="2.6" fill="hsl(294 66% 56%)"/><circle cx="36.4" cy="62.1" r="1.9" fill="hsl(206 62% 68%)"/><circle cx="35.7" cy="52.7" r="2.7" fill="hsl(294 66% 56%)"/><circle cx="35.9" cy="39.4" r="2.0" fill="hsl(294 66% 56%)"/><circle cx="34.5" cy="24.6" r="1.7" fill="hsl(294 66% 56%)"/><circle cx="57.2" cy="25.3" r="2.8" fill="hsl(294 66% 56%)"/><circle cx="48.6" cy="54.6" r="4" fill="hsl(294 74% 82%)"/></svg><rect x="826" y="340" width="150" height="150" rx="8" fill="#141318" stroke="#2a2832"/><svg x="826" y="340" width="150" height="150" viewBox="0 0 100 100"><circle cx="50" cy="50" r="46.5" fill="none" stroke="hsl(249 60% 55%)" stroke-width="0.8" opacity="0.3"/><polygon points="73.4,52.0 52.3,80.9 34.0,57.4 35.2,38.7 51.1,34.4 77.0,37.3" fill="hsl(249 60% 52% / 0.16)" stroke="hsl(249 74% 66%)" stroke-width="1.4" stroke-linejoin="round"/><line x1="73.4" y1="52.0" x2="34.0" y2="57.4" stroke="hsl(201 62% 68%)" stroke-width="0.8" opacity="0.7"/><line x1="52.3" y1="80.9" x2="35.2" y2="38.7" stroke="hsl(201 62% 68%)" stroke-width="0.8" opacity="0.7"/><line x1="34.0" y1="57.4" x2="51.1" y2="34.4" stroke="hsl(201 62% 68%)" stroke-width="0.8" opacity="0.7"/><line x1="35.2" y1="38.7" x2="77.0" y2="37.3" stroke="hsl(201 62% 68%)" stroke-width="0.8" opacity="0.7"/><line x1="51.1" y1="34.4" x2="73.4" y2="52.0" stroke="hsl(249 74% 66%)" stroke-width="0.8" opacity="0.7"/><line x1="77.0" y1="37.3" x2="52.3" y2="80.9" stroke="hsl(201 62% 68%)" stroke-width="0.8" opacity="0.7"/><circle cx="73.4" cy="52.0" r="2.0" fill="hsl(289 66% 56%)"/><circle cx="52.3" cy="80.9" r="2.9" fill="hsl(289 66% 56%)"/><circle cx="34.0" cy="57.4" r="2.8" fill="hsl(249 74% 66%)"/><circle cx="35.2" cy="38.7" r="1.7" fill="hsl(289 66% 56%)"/><circle cx="51.1" cy="34.4" r="1.5" fill="hsl(249 74% 66%)"/><circle cx="77.0" cy="37.3" r="2.5" fill="hsl(289 66% 56%)"/><circle cx="46.8" cy="47.6" r="2" fill="hsl(289 74% 82%)"/></svg><rect x="16" y="502" width="150" height="150" rx="8" fill="#141318" stroke="#2a2832"/><svg x="16" y="502" width="150" height="150" viewBox="0 0 100 100"><circle cx="50" cy="50" r="46.5" fill="none" stroke="hsl(210 60% 55%)" stroke-width="0.8" opacity="0.3"/><polygon points="22.7,47.5 36.9,35.8 64.3,32.0 64.6,45.4 70.9,69.8 48.3,68.4 36.8,57.5" fill="hsl(210 60% 52% / 0.16)" stroke="hsl(210 74% 66%)" stroke-width="1.4" stroke-linejoin="round"/><line x1="22.7" y1="47.5" x2="48.3" y2="68.4" stroke="hsl(210 74% 66%)" stroke-width="0.8" opacity="0.7"/><line x1="36.9" y1="35.8" x2="36.8" y2="57.5" stroke="hsl(250 66% 56%)" stroke-width="0.8" opacity="0.7"/><line x1="64.3" y1="32.0" x2="22.7" y2="47.5" stroke="hsl(250 66% 56%)" stroke-width="0.8" opacity="0.7"/><line x1="64.6" y1="45.4" x2="36.9" y2="35.8" stroke="hsl(162 62% 68%)" stroke-width="0.8" opacity="0.7"/><line x1="70.9" y1="69.8" x2="64.3" y2="32.0" stroke="hsl(162 62% 68%)" stroke-width="0.8" opacity="0.7"/><line x1="48.3" y1="68.4" x2="64.6" y2="45.4" stroke="hsl(250 66% 56%)" stroke-width="0.8" opacity="0.7"/><line x1="36.8" y1="57.5" x2="70.9" y2="69.8" stroke="hsl(162 62% 68%)" stroke-width="0.8" opacity="0.7"/><circle cx="22.7" cy="47.5" r="2.9" fill="hsl(210 74% 66%)"/><circle cx="36.9" cy="35.8" r="2.0" fill="hsl(250 66% 56%)"/><circle cx="64.3" cy="32.0" r="1.5" fill="hsl(162 62% 68%)"/><circle cx="64.6" cy="45.4" r="1.4" fill="hsl(162 62% 68%)"/><circle cx="70.9" cy="69.8" r="2.5" fill="hsl(162 62% 68%)"/><circle cx="48.3" cy="68.4" r="2.7" fill="hsl(250 66% 56%)"/><circle cx="36.8" cy="57.5" r="2.5" fill="hsl(250 66% 56%)"/><circle cx="50.4" cy="48.6" r="4" fill="hsl(250 74% 82%)"/></svg><rect x="178" y="502" width="150" height="150" rx="8" fill="#141318" stroke="#2a2832"/><svg x="178" y="502" width="150" height="150" viewBox="0 0 100 100"><circle cx="50" cy="50" r="46.5" fill="none" stroke="hsl(328 60% 55%)" stroke-width="0.8" opacity="0.3"/><polygon points="40.7,62.6 31.3,44.2 25.2,31.2 56.7,36.4 65.2,49.9 72.8,68.4" fill="hsl(328 60% 52% / 0.16)" stroke="hsl(328 74% 66%)" stroke-width="1.4" stroke-linejoin="round"/><line x1="40.7" y1="62.6" x2="56.7" y2="36.4" stroke="hsl(8 66% 56%)" stroke-width="0.8" opacity="0.7"/><line x1="31.3" y1="44.2" x2="65.2" y2="49.9" stroke="hsl(280 62% 68%)" stroke-width="0.8" opacity="0.7"/><line x1="25.2" y1="31.2" x2="72.8" y2="68.4" stroke="hsl(280 62% 68%)" stroke-width="0.8" opacity="0.7"/><line x1="56.7" y1="36.4" x2="40.7" y2="62.6" stroke="hsl(328 74% 66%)" stroke-width="0.8" opacity="0.7"/><line x1="65.2" y1="49.9" x2="31.3" y2="44.2" stroke="hsl(280 62% 68%)" stroke-width="0.8" opacity="0.7"/><line x1="72.8" y1="68.4" x2="25.2" y2="31.2" stroke="hsl(328 74% 66%)" stroke-width="0.8" opacity="0.7"/><circle cx="40.7" cy="62.6" r="2.3" fill="hsl(8 66% 56%)"/><circle cx="31.3" cy="44.2" r="2.8" fill="hsl(328 74% 66%)"/><circle cx="25.2" cy="31.2" r="3.0" fill="hsl(328 74% 66%)"/><circle cx="56.7" cy="36.4" r="1.5" fill="hsl(280 62% 68%)"/><circle cx="65.2" cy="49.9" r="2.6" fill="hsl(328 74% 66%)"/><circle cx="72.8" cy="68.4" r="3.1" fill="hsl(328 74% 66%)"/><circle cx="53.6" cy="46.5" r="2" fill="hsl(8 74% 82%)"/></svg><rect x="340" y="502" width="150" height="150" rx="8" fill="#141318" stroke="#2a2832"/><svg x="340" y="502" width="150" height="150" viewBox="0 0 100 100"><circle cx="50" cy="50" r="46.5" fill="none" stroke="hsl(246 60% 55%)" stroke-width="0.8" opacity="0.3"/><polygon points="57.8,77.3 36.8,72.1 30.4,63.6 18.8,46.1 28.8,33.7 51.7,28.4 70.6,24.3 74.8,64.5" fill="hsl(246 60% 52% / 0.16)" stroke="hsl(246 74% 66%)" stroke-width="1.4" stroke-linejoin="round"/><line x1="57.8" y1="77.3" x2="51.7" y2="28.4" stroke="hsl(246 74% 66%)" stroke-width="0.8" opacity="0.7"/><line x1="36.8" y1="72.1" x2="70.6" y2="24.3" stroke="hsl(286 66% 56%)" stroke-width="0.8" opacity="0.7"/><line x1="30.4" y1="63.6" x2="74.8" y2="64.5" stroke="hsl(286 66% 56%)" stroke-width="0.8" opacity="0.7"/><line x1="18.8" y1="46.1" x2="57.8" y2="77.3" stroke="hsl(246 74% 66%)" stroke-width="0.8" opacity="0.7"/><line x1="28.8" y1="33.7" x2="36.8" y2="72.1" stroke="hsl(246 74% 66%)" stroke-width="0.8" opacity="0.7"/><line x1="51.7" y1="28.4" x2="30.4" y2="63.6" stroke="hsl(286 66% 56%)" stroke-width="0.8" opacity="0.7"/><line x1="70.6" y1="24.3" x2="18.8" y2="46.1" stroke="hsl(286 66% 56%)" stroke-width="0.8" opacity="0.7"/><line x1="74.8" y1="64.5" x2="28.8" y2="33.7" stroke="hsl(286 66% 56%)" stroke-width="0.8" opacity="0.7"/><circle cx="57.8" cy="77.3" r="1.6" fill="hsl(246 74% 66%)"/><circle cx="36.8" cy="72.1" r="2.6" fill="hsl(246 74% 66%)"/><circle cx="30.4" cy="63.6" r="1.5" fill="hsl(286 66% 56%)"/><circle cx="18.8" cy="46.1" r="1.6" fill="hsl(198 62% 68%)"/><circle cx="28.8" cy="33.7" r="2.0" fill="hsl(286 66% 56%)"/><circle cx="51.7" cy="28.4" r="2.9" fill="hsl(286 66% 56%)"/><circle cx="70.6" cy="24.3" r="2.9" fill="hsl(286 66% 56%)"/><circle cx="74.8" cy="64.5" r="2.3" fill="hsl(286 66% 56%)"/><circle cx="47.6" cy="49.9" r="4" fill="hsl(286 74% 82%)"/></svg><rect x="502" y="502" width="150" height="150" rx="8" fill="#141318" stroke="#2a2832"/><svg x="502" y="502" width="150" height="150" viewBox="0 0 100 100"><circle cx="50" cy="50" r="46.5" fill="none" stroke="hsl(236 60% 55%)" stroke-width="0.8" opacity="0.3"/><polygon points="70.4,28.9 80.1,62.9 45.6,81.4 30.9,53.6 50.0,22.2" fill="hsl(236 60% 52% / 0.16)" stroke="hsl(236 74% 66%)" stroke-width="1.4" stroke-linejoin="round"/><line x1="70.4" y1="28.9" x2="45.6" y2="81.4" stroke="hsl(276 66% 56%)" stroke-width="0.8" opacity="0.7"/><line x1="80.1" y1="62.9" x2="30.9" y2="53.6" stroke="hsl(188 62% 68%)" stroke-width="0.8" opacity="0.7"/><line x1="45.6" y1="81.4" x2="50.0" y2="22.2" stroke="hsl(276 66% 56%)" stroke-width="0.8" opacity="0.7"/><line x1="30.9" y1="53.6" x2="70.4" y2="28.9" stroke="hsl(276 66% 56%)" stroke-width="0.8" opacity="0.7"/><line x1="50.0" y1="22.2" x2="80.1" y2="62.9" stroke="hsl(188 62% 68%)" stroke-width="0.8" opacity="0.7"/><circle cx="70.4" cy="28.9" r="1.7" fill="hsl(188 62% 68%)"/><circle cx="80.1" cy="62.9" r="1.9" fill="hsl(276 66% 56%)"/><circle cx="45.6" cy="81.4" r="3.0" fill="hsl(188 62% 68%)"/><circle cx="30.9" cy="53.6" r="2.8" fill="hsl(276 66% 56%)"/><circle cx="50.0" cy="22.2" r="1.6" fill="hsl(188 62% 68%)"/><circle cx="46.3" cy="45.9" r="3" fill="hsl(276 74% 82%)"/></svg><rect x="664" y="502" width="150" height="150" rx="8" fill="#141318" stroke="#2a2832"/><svg x="664" y="502" width="150" height="150" viewBox="0 0 100 100"><circle cx="50" cy="50" r="46.5" fill="none" stroke="hsl(128 60% 55%)" stroke-width="0.8" opacity="0.3"/><polygon points="62.3,69.8 36.6,81.8 25.8,60.9 33.4,31.8 44.1,19.2 70.3,31.7 89.7,58.1" fill="hsl(128 60% 52% / 0.16)" stroke="hsl(128 74% 66%)" stroke-width="1.4" stroke-linejoin="round"/><line x1="62.3" y1="69.8" x2="25.8" y2="60.9" stroke="hsl(128 74% 66%)" stroke-width="0.8" opacity="0.7"/><line x1="36.6" y1="81.8" x2="33.4" y2="31.8" stroke="hsl(168 66% 56%)" stroke-width="0.8" opacity="0.7"/><line x1="25.8" y1="60.9" x2="44.1" y2="19.2" stroke="hsl(128 74% 66%)" stroke-width="0.8" opacity="0.7"/><line x1="33.4" y1="31.8" x2="70.3" y2="31.7" stroke="hsl(128 74% 66%)" stroke-width="0.8" opacity="0.7"/><line x1="44.1" y1="19.2" x2="89.7" y2="58.1" stroke="hsl(128 74% 66%)" stroke-width="0.8" opacity="0.7"/><line x1="70.3" y1="31.7" x2="62.3" y2="69.8" stroke="hsl(128 74% 66%)" stroke-width="0.8" opacity="0.7"/><line x1="89.7" y1="58.1" x2="36.6" y2="81.8" stroke="hsl(128 74% 66%)" stroke-width="0.8" opacity="0.7"/><circle cx="62.3" cy="69.8" r="1.6" fill="hsl(128 74% 66%)"/><circle cx="36.6" cy="81.8" r="3.0" fill="hsl(128 74% 66%)"/><circle cx="25.8" cy="60.9" r="2.4" fill="hsl(168 66% 56%)"/><circle cx="33.4" cy="31.8" r="3.0" fill="hsl(80 62% 68%)"/><circle cx="44.1" cy="19.2" r="1.9" fill="hsl(128 74% 66%)"/><circle cx="70.3" cy="31.7" r="3.1" fill="hsl(80 62% 68%)"/><circle cx="89.7" cy="58.1" r="1.8" fill="hsl(168 66% 56%)"/><circle cx="51.9" cy="52.5" r="2" fill="hsl(168 74% 82%)"/></svg><rect x="826" y="502" width="150" height="150" rx="8" fill="#141318" stroke="#2a2832"/><svg x="826" y="502" width="150" height="150" viewBox="0 0 100 100"><circle cx="50" cy="50" r="46.5" fill="none" stroke="hsl(244 60% 55%)" stroke-width="0.8" opacity="0.3"/><polygon points="67.4,46.3 65.4,54.3 67.7,77.4 50.3,72.1 31.9,64.0 25.8,53.3 21.3,42.2 35.9,30.6 51.7,25.1 65.9,32.3" fill="hsl(244 60% 52% / 0.16)" stroke="hsl(244 74% 66%)" stroke-width="1.4" stroke-linejoin="round"/><line x1="67.4" y1="46.3" x2="35.9" y2="30.6" stroke="hsl(196 62% 68%)" stroke-width="0.8" opacity="0.7"/><line x1="65.4" y1="54.3" x2="51.7" y2="25.1" stroke="hsl(196 62% 68%)" stroke-width="0.8" opacity="0.7"/><line x1="67.7" y1="77.4" x2="65.9" y2="32.3" stroke="hsl(196 62% 68%)" stroke-width="0.8" opacity="0.7"/><line x1="50.3" y1="72.1" x2="67.4" y2="46.3" stroke="hsl(244 74% 66%)" stroke-width="0.8" opacity="0.7"/><line x1="31.9" y1="64.0" x2="65.4" y2="54.3" stroke="hsl(244 74% 66%)" stroke-width="0.8" opacity="0.7"/><line x1="25.8" y1="53.3" x2="67.7" y2="77.4" stroke="hsl(244 74% 66%)" stroke-width="0.8" opacity="0.7"/><line x1="21.3" y1="42.2" x2="50.3" y2="72.1" stroke="hsl(284 66% 56%)" stroke-width="0.8" opacity="0.7"/><line x1="35.9" y1="30.6" x2="31.9" y2="64.0" stroke="hsl(244 74% 66%)" stroke-width="0.8" opacity="0.7"/><line x1="51.7" y1="25.1" x2="25.8" y2="53.3" stroke="hsl(244 74% 66%)" stroke-width="0.8" opacity="0.7"/><line x1="65.9" y1="32.3" x2="21.3" y2="42.2" stroke="hsl(244 74% 66%)" stroke-width="0.8" opacity="0.7"/><circle cx="67.4" cy="46.3" r="2.7" fill="hsl(244 74% 66%)"/><circle cx="65.4" cy="54.3" r="3.1" fill="hsl(244 74% 66%)"/><circle cx="67.7" cy="77.4" r="3.1" fill="hsl(244 74% 66%)"/><circle cx="50.3" cy="72.1" r="3.0" fill="hsl(196 62% 68%)"/><circle cx="31.9" cy="64.0" r="2.0" fill="hsl(284 66% 56%)"/><circle cx="25.8" cy="53.3" r="2.5" fill="hsl(284 66% 56%)"/><circle cx="21.3" cy="42.2" r="1.9" fill="hsl(244 74% 66%)"/><circle cx="35.9" cy="30.6" r="2.3" fill="hsl(196 62% 68%)"/><circle cx="51.7" cy="25.1" r="2.3" fill="hsl(284 66% 56%)"/><circle cx="65.9" cy="32.3" r="3.0" fill="hsl(244 74% 66%)"/><circle cx="51.0" cy="54.3" r="2" fill="hsl(284 74% 82%)"/></svg></svg>
