<svg xmlns="http://www.w3.org/2000/svg" width="992" height="668" viewBox="0 0 992 668"><rect width="992" height="668" fill="#0b0b0d"/><rect x="16" y="16" width="150" height="150" rx="8" fill="#141318" stroke="#2a2832"/><svg x="16" y="16" width="150" height="150" viewBox="0 0 100 100"><circle cx="50" cy="50" r="46.5" fill="none" stroke="hsl(11 60% 55%)" stroke-width="0.8" opacity="0.3"/><polygon points="70.2,30.1 78.0,59.3 53.9,82.4 32.6,70.6 32.4,56.4 34.6,39.9 66.7,21.9" fill="hsl(11 60% 52% / 0.16)" stroke="hsl(11 74% 66%)" stroke-width="1.4" stroke-linejoin="round"/><line x1="70.2" y1="30.1" x2="32.4" y2="56.4" stroke="hsl(11 74% 66%)" stroke-width="0.8" opacity="0.7"/><line x1="78.0" y1="59.3" x2="34.6" y2="39.9" stroke="hsl(51 66% 56%)" stroke-width="0.8" opacity="0.7"/><line x1="53.9" y1="82.4" x2="66.7" y2="21.9" stroke="hsl(11 74% 66%)" stroke-width="0.8" opacity="0.7"/><line x1="32.6" y1="70.6" x2="70.2" y2="30.1" stroke="hsl(11 74% 66%)" stroke-width="0.8" opacity="0.7"/><line x1="32.4" y1="56.4" x2="78.0" y2="59.3" stroke="hsl(323 62% 68%)" stroke-width="0.8" opacity="0.7"/><line x1="34.6" y1="39.9" x2="53.9" y2="82.4" stroke="hsl(11 74% 66%)" stroke-width="0.8" opacity="0.7"/><line x1="66.7" y1="21.9" x2="32.6" y2="70.6" stroke="hsl(51 66% 56%)" stroke-width="0.8" opacity="0.7"/><circle cx="70.2" cy="30.1" r="1.7" fill="hsl(51 66% 56%)"/><circle cx="78.0" cy="59.3" r="2.1" fill="hsl(323 62% 68%)"/><circle cx="53.9" cy="82.4" r="2.3" fill="hsl(11 74% 66%)"/><circle cx="32.6" cy="70.6" r="2.6" fill="hsl(11 74% 66%)"/><circle cx="32.4" cy="56.4" r="2.6" fill="hsl(11 74% 66%)"/><circle cx="34.6" cy="39.9" r="1.5" fill="hsl(11 74% 66%)"/><circle cx="66.7" cy="21.9" r="2.1" fill="hsl(51 66% 56%)"/><circle cx="46.6" cy="47.5" r="2" fill="hsl(51 74% 82%)"/></svg><rect x="178" y="16" width="150" height="150" rx="8" fill="#141318" stroke="#2a2832"/><svg x="178" y="16" width="150" height="150" viewBox="0 0 100 100"><circle cx="50" cy="50" r="46.5" fill="none" stroke="hsl(304 60% 55%)" stroke-width="0.8" opacity="0.3"/><polygon points="81.1,41.5 69.1,60.2 63.9,75.0 40.4,75.0 33.1,60.1 17.3,48.8 23.2,25.8 44.3,16.9 52.7,18.1 76.9,32.0" fill="hsl(304 60% 52% / 0.16)" stroke="hsl(304 74% 66%)" stroke-width="1.4" stroke-linejoin="round"/><line x1="81.1" y1="41.5" x2="33.1" y2="60.1" stroke="hsl(256 62% 68%)" stroke-width="0.8" opacity="0.7"/><line x1="69.1" y1="60.2" x2="17.3" y2="48.8" stroke="hsl(304 74% 66%)" stroke-width="0.8" opacity="0.7"/><line x1="63.9" y1="75.0" x2="23.2" y2="25.8" stroke="hsl(344 66% 56%)" stroke-width="0.8" opacity="0.7"/><line x1="40.4" y1="75.0" x2="44.3" y2="16.9" stroke="hsl(344 66% 56%)" stroke-width="0.8" opacity="0.7"/><line x1="33.1" y1="60.1" x2="52.7" y2="18.1" stroke="hsl(344 66% 56%)" stroke-width="0.8" opacity="0.7"/><line x1="17.3" y1="48.8" x2="76.9" y2="32.0" stroke="hsl(256 62% 68%)" stroke-width="0.8" opacity="0.7"/><line x1="23.2" y1="25.8" x2="81.1" y2="41.5" stroke="hsl(344 66% 56%)" stroke-width="0.8" opacity="0.7"/><line x1="44.3" y1="16.9" x2="69.1" y2="60.2" stroke="hsl(344 66% 56%)" stroke-width="0.8" opacity="0.7"/><line x1="52.7" y1="18.1" x2="63.9" y2="75.0" stroke="hsl(304 74% 66%)" stroke-width="0.8" opacity="0.7"/><line x1="76.9" y1="32.0" x2="40.4" y2="75.0" stroke="hsl(344 66% 56%)" stroke-width="0.8" opacity="0.7"/><circle cx="81.1" cy="41.5" r="2.7" fill="hsl(304 74% 66%)"/><circle cx="69.1" cy="60.2" r="3.0" fill="hsl(304 74% 66%)"/><circle cx="63.9" cy="75.0" r="1.5" fill="hsl(256 62% 68%)"/><circle cx="40.4" cy="75.0" r="2.6" fill="hsl(304 74% 66%)"/><circle cx="33.1" cy="60.1" r="2.9" fill="hsl(256 62% 68%)"/><circle cx="17.3" cy="48.8" r="2.2" fill="hsl(344 66% 56%)"/><circle cx="23.2" cy="25.8" r="1.5" fill="hsl(304 74% 66%)"/><circle cx="44.3" cy="16.9" r="2.9" fill="hsl(256 62% 68%)"/><circle cx="52.7" cy="18.1" r="2.3" fill="hsl(344 66% 56%)"/><circle cx="76.9" cy="32.0" r="2.0" fill="hsl(256 62% 68%)"/><circle cx="50.3" cy="52.5" r="4" fill="hsl(344 74% 82%)"/></svg><rect x="340" y="16" width="150" height="150" rx="8" fill="#141318" stroke="#2a2832"/><svg x="340" y="16" width="150" height="150" viewBox="0 0 100 100"><circle cx="50" cy="50" r="46.5" fill="none" stroke="hsl(306 60% 55%)" stroke-width="0.8" opacity="0.3"/><polygon points="52.6,31.3 80.2,32.5 74.8,51.1 68.2,75.2 43.0,76.1 32.2,65.2 24.6,48.2 31.4,30.1" fill="hsl(306 60% 52% / 0.16)" stroke="hsl(306 74% 66%)" stroke-width="1.4" stroke-linejoin="round"/><line x1="52.6" y1="31.3" x2="43.0" y2="76.1" stroke="hsl(346 66% 56%)" stroke-width="0.8" opacity="0.7"/><line x1="80.2" y1="32.5" x2="32.2" y2="65.2" stroke="hsl(306 74% 66%)" stroke-width="0.8" opacity="0.7"/><line x1="74.8" y1="51.1" x2="24.6" y2="48.2" stroke="hsl(306 74% 66%)" stroke-width="0.8" opacity="0.7"/><line x1="68.2" y1="75.2" x2="31.4" y2="30.1" stroke="hsl(258 62% 68%)" stroke-width="0.8" opacity="0.7"/><line x1="43.0" y1="76.1" x2="52.6" y2="31.3" stroke="hsl(258 62% 68%)" stroke-width="0.8" opacity="0.7"/><line x1="32.2" y1="65.2" x2="80.2" y2="32.5" stroke="hsl(258 62% 68%)" stroke-width="0.8" opacity="0.7"/><line x1="24.6" y1="48.2" x2="74.8" y2="51.1" stroke="hsl(306 74% 66%)" stroke-width="0.8" opacity="0.7"/><line x1="31.4" y1="30.1" x2="68.2" y2="75.2" stroke="hsl(258 62% 68%)" stroke-width="0.8" opacity="0.7"/><circle cx="52.6" cy="31.3" r="2.1" fill="hsl(306 74% 66%)"/><circle cx="80.2" cy="32.5" r="2.6" fill="hsl(258 62% 68%)"/><circle cx="74.8" cy="51.1" r="1.9" fill="hsl(258 62% 68%)"/><circle cx="68.2" cy="75.2" r="2.1" fill="hsl(346 66% 56%)"/><circle cx="43.0" cy="76.1" r="1.7" fill="hsl(306 74% 66%)"/><circle cx="32.2" cy="65.2" r="2.1" fill="hsl(258 62% 68%)"/><circle cx="24.6" cy="48.2" r="2.0" fill="hsl(346 66% 56%)"/><circle cx="31.4" cy="30.1" r="3.2" fill="hsl(258 62% 68%)"/><circle cx="49.9" cy="47.3" r="2" fill="hsl(346 74% 82%)"/></svg><rect x="502" y="16" width="150" height="150" rx="8" fill="#141318" stroke="#2a2832"/><svg x="502" y="16" width="150" height="150" viewBox="0 0 100 100"><circle cx="50" cy="50" r="46.5" fill="none" stroke="hsl(123 60% 55%)" stroke-width="0.8" opacity="0.3"/><polygon points="47.0,83.3 18.1,66.9 36.5,20.7 51.6,16.2 69.4,42.6 65.2,70.2" fill="hsl(123 60% 52% / 0.16)" stroke="hsl(123 74% 66%)" stroke-width="1.4" stroke-linejoin="round"/><line x1="47.0" y1="83.3" x2="51.6" y2="16.2" stroke="hsl(123 74% 66%)" stroke-width="0.8" opacity="0.7"/><line x1="18.1" y1="66.9" x2="69.4" y2="42.6" stroke="hsl(75 62% 68%)" stroke-width="0.8" opacity="0.7"/><line x1="36.5" y1="20.7" x2="65.2" y2="70.2" stroke="hsl(123 74% 66%)" stroke-width="0.8" opacity="0.7"/><line x1="51.6" y1="16.2" x2="47.0" y2="83.3" stroke="hsl(75 62% 68%)" stroke-width="0.8" opacity="0.7"/><line x1="69.4" y1="42.6" x2="18.1" y2="66.9" stroke="hsl(123 74% 66%)" stroke-width="0.8" opacity="0.7"/><line x1="65.2" y1="70.2" x2="36.5" y2="20.7" stroke="hsl(75 62% 68%)" stroke-width="0.8" opacity="0.7"/><circle cx="47.0" cy="83.3" r="2.4" fill="hsl(75 62% 68%)"/><circle cx="18.1" cy="66.9" r="1.6" fill="hsl(163 66% 56%)"/><circle cx="36.5" cy="20.7" r="2.9" fill="hsl(163 66% 56%)"/><circle cx="51.6" cy="16.2" r="2.8" fill="hsl(75 62% 68%)"/><circle cx="69.4" cy="42.6" r="3.1" fill="hsl(163 66% 56%)"/><circle cx="65.2" cy="70.2" r="2.0" fill="hsl(123 74% 66%)"/><circle cx="53.4" cy="47.0" r="3" fill="hsl(163 74% 82%)"/></svg><rect x="664" y="16" width="150" height="150" rx="8" fill="#141318" stroke="#2a2832"/><svg x="664" y="16" width="150" height="150" viewBox="0 0 100 100"><circle cx="50" cy="50" r="46.5" fill="none" stroke="hsl(124 60% 55%)" stroke-width="0.8" opacity="0.3"/><polygon points="63.4,20.7 74.6,38.2 81.2,63.1 53.0,66.4 34.9,73.6 29.8,52.6 29.5,35.0 44.4,25.4" fill="hsl(124 60% 52% / 0.16)" stroke="hsl(124 74% 66%)" stroke-width="1.4" stroke-linejoin="round"/><line x1="63.4" y1="20.7" x2="53.0" y2="66.4" stroke="hsl(124 74% 66%)" stroke-width="0.8" opacity="0.7"/><line x1="74.6" y1="38.2" x2="34.9" y2="73.6" stroke="hsl(124 74% 66%)" stroke-width="0.8" opacity="0.7"/><line x1="81.2" y1="63.1" x2="29.8" y2="52.6" stroke="hsl(124 74% 66%)" stroke-width="0.8" opacity="0.7"/><line x1="53.0" y1="66.4" x2="29.5" y2="35.0" stroke="hsl(124 74% 66%)" stroke-width="0.8" opacity="0.7"/><line x1="34.9" y1="73.6" x2="44.4" y2="25.4" stroke="hsl(76 62% 68%)" stroke-width="0.8" opacity="0.7"/><line x1="29.8" y1="52.6" x2="63.4" y2="20.7" stroke="hsl(76 62% 68%)" stroke-width="0.8" opacity="0.7"/><line x1="29.5" y1="35.0" x2="74.6" y2="38.2" stroke="hsl(76 62% 68%)" stroke-width="0.8" opacity="0.7"/><line x1="44.4" y1="25.4" x2="81.2" y2="63.1" stroke="hsl(76 62% 68%)" stroke-width="0.8" opacity="0.7"/><circle cx="63.4" cy="20.7" r="3.1" fill="hsl(76 62% 68%)"/><circle cx="74.6" cy="38.2" r="2.6" fill="hsl(76 62% 68%)"/><circle cx="81.2" cy="63.1" r="1.7" fill="hsl(76 62% 68%)"/><circle cx="53.0" cy="66.4" r="2.0" fill="hsl(164 66% 56%)"/><circle cx="34.9" cy="73.6" r="1.5" fill="hsl(124 74% 66%)"/><circle cx="29.8" cy="52.6" r="3.2" fill="hsl(76 62% 68%)"/><circle cx="29.5" cy="35.0" r="2.0" fill="hsl(124 74% 66%)"/><circle cx="44.4" cy="25.4" r="3.1" fill="hsl(164 66% 56%)"/><circle cx="48.7" cy="54.0" r="3" fill="hsl(164 74% 82%)"/></svg><rect x="826" y="16" width="150" height="150" rx="8" fill="#141318" stroke="#2a2832"/><svg x="826" y="16" width="150" height="150" viewBox="0 0 100 100"><circle cx="50" cy="50" r="46.5" fill="none" stroke="hsl(79 60% 55%)" stroke-width="0.8" opacity="0.3"/><polygon points="24.5,66.9 25.0,55.0 30.2,43.9 43.4,35.7 49.5,26.5 66.6,24.3 77.1,42.2 75.0,54.9 63.6,65.9 59.3,77.8 35.0,83.1" fill="hsl(79 60% 52% / 0.16)" stroke="hsl(79 74% 66%)" stroke-width="1.4" stroke-linejoin="round"/><line x1="24.5" y1="66.9" x2="43.4" y2="35.7" stroke="hsl(119 66% 56%)" stroke-width="0.8" opacity="0.7"/><line x1="25.0" y1="55.0" x2="49.5" y2="26.5" stroke="hsl(119 66% 56%)" stroke-width="0.8" opacity="0.7"/><line x1="30.2" y1="43.9" x2="66.6" y2="24.3" stroke="hsl(79 74% 66%)" stroke-width="0.8" opacity="0.7"/><line x1="43.4" y1="35.7" x2="77.1" y2="42.2" stroke="hsl(119 66% 56%)" stroke-width="0.8" opacity="0.7"/><line x1="49.5" y1="26.5" x2="75.0" y2="54.9" stroke="hsl(119 66% 56%)" stroke-width="0.8" opacity="0.7"/><line x1="66.6" y1="24.3" x2="63.6" y2="65.9" stroke="hsl(119 66% 56%)" stroke-width="0.8" opacity="0.7"/><line x1="77.1" y1="42.2" x2="59.3" y2="77.8" stroke="hsl(31 62% 68%)" stroke-width="0.8" opacity="0.7"/><line x1="75.0" y1="54.9" x2="35.0" y2="83.1" stroke="hsl(31 62% 68%)" stroke-width="0.8" opacity="0.7"/><line x1="63.6" y1="65.9" x2="24.5" y2="66.9" stroke="hsl(79 74% 66%)" stroke-width="0.8" opacity="0.7"/><line x1="59.3" y1="77.8" x2="25.0" y2="55.0" stroke="hsl(31 62% 68%)" stroke-width="0.8" opacity="0.7"/><line x1="35.0" y1="83.1" x2="30.2" y2="43.9" stroke="hsl(119 66% 56%)" stroke-width="0.8" opacity="0.7"/><circle cx="24.5" cy="66.9" r="1.9" fill="hsl(31 62% 68%)"/><circle cx="25.0" cy="55.0" r="1.5" fill="hsl(79 74% 66%)"/><circle cx="30.2" cy="43.9" r="3.2" fill="hsl(79 74% 66%)"/><circle cx="43.4" cy="35.7" r="2.3" fill="hsl(79 74% 66%)"/><circle cx="49.5" cy="26.5" r="2.2" fill="hsl(79 74% 66%)"/><circle cx="66.6" cy="24.3" r="3.0" fill="hsl(119 66% 56%)"/><circle cx="77.1" cy="42.2" r="1.5" fill="hsl(79 74% 66%)"/><circle cx="75.0" cy="54.9" r="2.6" fill="hsl(119 66% 56%)"/><circle cx="63.6" cy="65.9" r="1.5" fill="hsl(119 66% 56%)"/><circle cx="59.3" cy="77.8" r="2.1" fill="hsl(79 74% 66%)"/><circle cx="35.0" cy="83.1" r="3.0" fill="hsl(119 66% 56%)"/><circle cx="50.2" cy="45.5" r="2" fill="hsl(119 74% 82%)"/></svg><rect x="16" y="178" width="150" height="150" rx="8" fill="#141318" stroke="#2a2832"/><svg x="16" y="178" width="150" height="150" viewBox="0 0 100 100"><circle cx="50" cy="50" r="46.5" fill="none" stroke="hsl(124 60% 55%)" stroke-width="0.8" opacity="0.3"/><polygon points="27.9,61.1 30.7,50.3 25.5,30.9 38.6,29.0 54.9,31.4 62.1,34.6 76.8,37.5 66.6,57.6 63.1,63.2 52.3,72.0 41.3,74.9" fill="hsl(124 60% 52% / 0.16)" stroke="hsl(124 74% 66%)" stroke-width="1.4" stroke-linejoin="round"/><line x1="27.9" y1="61.1" x2="63.1" y2="63.2" stroke="hsl(124 74% 66%)" stroke-width="0.8" opacity="0.7"/><line x1="30.7" y1="50.3" x2="52.3" y2="72.0" stroke="hsl(76 62% 68%)" stroke-width="0.8" opacity="0.7"/><line x1="25.5" y1="30.9" x2="41.3" y2="74.9" stroke="hsl(76 62% 68%)" stroke-width="0.8" opacity="0.7"/><line x1="38.6" y1="29.0" x2="27.9" y2="61.1" stroke="hsl(76 62% 68%)" stroke-width="0.8" opacity="0.7"/><line x1="54.9" y1="31.4" x2="30.7" y2="50.3" stroke="hsl(124 74% 66%)" stroke-width="0.8" opacity="0.7"/><line x1="62.1" y1="34.6" x2="25.5" y2="30.9" stroke="hsl(164 66% 56%)" stroke-width="0.8" opacity="0.7"/><line x1="76.8" y1="37.5" x2="38.6" y2="29.0" stroke="hsl(164 66% 56%)" stroke-width="0.8" opacity="0.7"/><line x1="66.6" y1="57.6" x2="54.9" y2="31.4" stroke="hsl(124 74% 66%)" stroke-width="0.8" opacity="0.7"/><line x1="63.1" y1="63.2" x2="62.1" y2="34.6" stroke="hsl(76 62% 68%)" stroke-width="0.8" opacity="0.7"/><line x1="52.3" y1="72.0" x2="76.8" y2="37.5" stroke="hsl(124 74% 66%)" stroke-width="0.8" opacity="0.7"/><line x1="41.3" y1="74.9" x2="66.6" y2="57.6" stroke="hsl(124 74% 66%)" stroke-width="0.8" opacity="0.7"/><circle cx="27.9" cy="61.1" r="1.4" fill="hsl(164 66% 56%)"/><circle cx="30.7" cy="50.3" r="2.5" fill="hsl(124 74% 66%)"/><circle cx="25.5" cy="30.9" r="2.0" fill="hsl(164 66% 56%)"/><circle cx="38.6" cy="29.0" r="1.4" fill="hsl(164 66% 56%)"/><circle cx="54.9" cy="31.4" r="2.4" fill="hsl(164 66% 56%)"/><circle cx="62.1" cy="34.6" r="1.7" fill="hsl(164 66% 56%)"/><circle cx="76.8" cy="37.5" r="1.6" fill="hsl(76 62% 68%)"/><circle cx="66.6" cy="57.6" r="1.9" fill="hsl(164 66% 56%)"/><circle cx="63.1" cy="63.2" r="1.7" fill="hsl(76 62% 68%)"/><circle cx="52.3" cy="72.0" r="3.2" fill="hsl(76 62% 68%)"/><circle cx="41.3" cy="74.9" r="2.5" fill="hsl(164 66% 56%)"/><circle cx="53.7" cy="46.7" r="3" fill="hsl(164 74% 82%)"/></svg><rect x="178" y="178" width="150" height="150" rx="8" fill="#141318" stroke="#2a2832"/><svg x="178" y="178" width="150" height="150" viewBox="0 0 100 100"><circle cx="50" cy="50" r="46.5" fill="none" stroke="hsl(263 60% 55%)" stroke-width="0.8" opacity="0.3"/><polygon points="34.5,45.5 43.2,37.4 58.0,22.3 63.6,40.2 64.8,56.8 56.3,78.5 41.4,68.1 21.0,62.6" fill="hsl(263 60% 52% / 0.16)" stroke="hsl(263 74% 66%)" stroke-width="1.4" stroke-linejoin="round"/><line x1="34.5" y1="45.5" x2="58.0" y2="22.3" stroke="hsl(303 66% 56%)" stroke-width="0.8" opacity="0.7"/><line x1="43.2" y1="37.4" x2="63.6" y2="40.2" stroke="hsl(263 74% 66%)" stroke-width="0.8" opacity="0.7"/><line x1="58.0" y1="22.3" x2="64.8" y2="56.8" stroke="hsl(215 62% 68%)" stroke-width="0.8" opacity="0.7"/><line x1="63.6" y1="40.2" x2="56.3" y2="78.5" stroke="hsl(263 74% 66%)" stroke-width="0.8" opacity="0.7"/><line x1="64.8" y1="56.8" x2="41.4" y2="68.1" stroke="hsl(215 62% 68%)" stroke-width="0.8" opacity="0.7"/><line x1="56.3" y1="78.5" x2="21.0" y2="62.6" stroke="hsl(263 74% 66%)" stroke-width="0.8" opacity="0.7"/><line x1="41.4" y1="68.1" x2="34.5" y2="45.5" stroke="hsl(263 74% 66%)" stroke-width="0.8" opacity="0.7"/><line x1="21.0" y1="62.6" x2="43.2" y2="37.4" stroke="hsl(215 62% 68%)" stroke-width="0.8" opacity="0.7"/><circle cx="34.5" cy="45.5" r="2.3" fill="hsl(263 74% 66%)"/><circle cx="43.2" cy="37.4" r="2.3" fill="hsl(303 66% 56%)"/><circle cx="58.0" cy="22.3" r="1.7" fill="hsl(215 62% 68%)"/><circle cx="63.6" cy="40.2" r="1.9" fill="hsl(215 62% 68%)"/><circle cx="64.8" cy="56.8" r="2.7" fill="hsl(263 74% 66%)"/><circle cx="56.3" cy="78.5" r="1.4" fill="hsl(215 62% 68%)"/><circle cx="41.4" cy="68.1" r="2.6" fill="hsl(215 62% 68%)"/><circle cx="21.0" cy="62.6" r="1.6" fill="hsl(215 62% 68%)"/><circle cx="54.2" cy="54.5" r="4" fill="hsl(303 74% 82%)"/></svg><rect x="340" y="178" width="150" height="150" rx="8" fill="#141318" stroke="#2a2832"/><svg x="340" y="178" width="150" height="150" viewBox="0 0 100 100"><circle cx="50" cy="50" r="46.5" fill="none" stroke="hsl(121 60% 55%)" stroke-width="0.8" opacity="0.3"/><polygon points="29.4,43.8 32.4,30.3 47.8,15.5 60.0,35.2 69.9,30.9 80.3,45.6 74.8,72.4 48.9,85.2 44.8,75.1 18.9,58.2" fill="hsl(121 60% 52% / 0.16)" stroke="hsl(121 74% 66%)" stroke-width="1.4" stroke-linejoin="round"/><line x1="29.4" y1="43.8" x2="80.3" y2="45.6" stroke="hsl(73 62% 68%)" stroke-width="0.8" opacity="0.7"/><line x1="32.4" y1="30.3" x2="74.8" y2="72.4" stroke="hsl(73 62% 68%)" stroke-width="0.8" opacity="0.7"/><line x1="47.8" y1="15.5" x2="48.9" y2="85.2" stroke="hsl(73 62% 68%)" stroke-width="0.8" opacity="0.7"/><line x1="60.0" y1="35.2" x2="44.8" y2="75.1" stroke="hsl(73 62% 68%)" stroke-width="0.8" opacity="0.7"/><line x1="69.9" y1="30.9" x2="18.9" y2="58.2" stroke="hsl(161 66% 56%)" stroke-width="0.8" opacity="0.7"/><line x1="80.3" y1="45.6" x2="29.4" y2="43.8" stroke="hsl(121 74% 66%)" stroke-width="0.8" opacity="0.7"/><line x1="74.8" y1="72.4" x2="32.4" y2="30.3" stroke="hsl(121 74% 66%)" stroke-width="0.8" opacity="0.7"/><line x1="48.9" y1="85.2" x2="47.8" y2="15.5" stroke="hsl(73 62% 68%)" stroke-width="0.8" opacity="0.7"/><line x1="44.8" y1="75.1" x2="60.0" y2="35.2" stroke="hsl(161 66% 56%)" stroke-width="0.8" opacity="0.7"/><line x1="18.9" y1="58.2" x2="69.9" y2="30.9" stroke="hsl(161 66% 56%)" stroke-width="0.8" opacity="0.7"/><circle cx="29.4" cy="43.8" r="2.6" fill="hsl(73 62% 68%)"/><circle cx="32.4" cy="30.3" r="1.4" fill="hsl(73 62% 68%)"/><circle cx="47.8" cy="15.5" r="2.1" fill="hsl(73 62% 68%)"/><circle cx="60.0" cy="35.2" r="2.8" fill="hsl(73 62% 68%)"/><circle cx="69.9" cy="30.9" r="2.5" fill="hsl(73 62% 68%)"/><circle cx="80.3" cy="45.6" r="1.5" fill="hsl(161 66% 56%)"/><circle cx="74.8" cy="72.4" r="2.3" fill="hsl(161 66% 56%)"/><circle cx="48.9" cy="85.2" r="1.5" fill="hsl(73 62% 68%)"/><circle cx="44.8" cy="75.1" r="2.8" fill="hsl(121 74% 66%)"/><circle cx="18.9" cy="58.2" r="2.9" fill="hsl(161 66% 56%)"/><circle cx="48.9" cy="48.3" r="4" fill="hsl(161 74% 82%)"/></svg><rect x="502" y="178" width="150" height="150" rx="8" fill="#141318" stroke="#2a2832"/><svg x="502" y="178" width="150" height="150" viewBox="0 0 100 100"><circle cx="50" cy="50" r="46.5" fill="none" stroke="hsl(90 60% 55%)" stroke-width="0.8" opacity="0.3"/><polygon points="63.7,28.1 87.7,41.7 60.3,85.6 34.0,61.6 14.3,61.0 34.1,30.9" fill="hsl(90 60% 52% / 0.16)" stroke="hsl(90 74% 66%)" stroke-width="1.4" stroke-linejoin="round"/><line x1="63.7" y1="28.1" x2="14.3" y2="61.0" stroke="hsl(42 62% 68%)" stroke-width="0.8" opacity="0.7"/><line x1="87.7" y1="41.7" x2="34.1" y2="30.9" stroke="hsl(90 74% 66%)" stroke-width="0.8" opacity="0.7"/><line x1="60.3" y1="85.6" x2="63.7" y2="28.1" stroke="hsl(42 62% 68%)" stroke-width="0.8" opacity="0.7"/><line x1="34.0" y1="61.6" x2="87.7" y2="41.7" stroke="hsl(130 66% 56%)" stroke-width="0.8" opacity="0.7"/><line x1="14.3" y1="61.0" x2="60.3" y2="85.6" stroke="hsl(130 66% 56%)" stroke-width="0.8" opacity="0.7"/><line x1="34.1" y1="30.9" x2="34.0" y2="61.6" stroke="hsl(90 74% 66%)" stroke-width="0.8" opacity="0.7"/><circle cx="63.7" cy="28.1" r="2.9" fill="hsl(130 66% 56%)"/><circle cx="87.7" cy="41.7" r="1.5" fill="hsl(130 66% 56%)"/><circle cx="60.3" cy="85.6" r="1.6" fill="hsl(90 74% 66%)"/><circle cx="34.0" cy="61.6" r="1.7" fill="hsl(42 62% 68%)"/><circle cx="14.3" cy="61.0" r="2.4" fill="hsl(42 62% 68%)"/><circle cx="34.1" cy="30.9" r="1.7" fill="hsl(130 66% 56%)"/><circle cx="45.4" cy="53.9" r="4" fill="hsl(130 74% 82%)"/></svg><rect x="664" y="178" width="150" height="150" rx="8" fill="#141318" stroke="#2a2832"/><svg x="664" y="178" width="150" height="150" viewBox="0 0 100 100"><circle cx="50" cy="50" r="46.5" fill="none" stroke="hsl(231 60% 55%)" stroke-width="0.8" opacity="0.3"/><polygon points="64.0,61.0 60.6,72.7 41.9,70.6 16.5,65.2 31.4,38.9 36.6,23.2 59.2,31.7 78.8,41.2" fill="hsl(231 60% 52% / 0.16)" stroke="hsl(231 74% 66%)" stroke-width="1.4" stroke-linejoin="round"/><line x1="64.0" y1="61.0" x2="31.4" y2="38.9" stroke="hsl(231 74% 66%)" stroke-width="0.8" opacity="0.7"/><line x1="60.6" y1="72.7" x2="36.6" y2="23.2" stroke="hsl(183 62% 68%)" stroke-width="0.8" opacity="0.7"/><line x1="41.9" y1="70.6" x2="59.2" y2="31.7" stroke="hsl(183 62% 68%)" stroke-width="0.8" opacity="0.7"/><line x1="16.5" y1="65.2" x2="78.8" y2="41.2" stroke="hsl(183 62% 68%)" stroke-width="0.8" opacity="0.7"/><line x1="31.4" y1="38.9" x2="64.0" y2="61.0" stroke="hsl(183 62% 68%)" stroke-width="0.8" opacity="0.7"/><line x1="36.6" y1="23.2" x2="60.6" y2="72.7" stroke="hsl(183 62% 68%)" stroke-width="0.8" opacity="0.7"/><line x1="59.2" y1="31.7" x2="41.9" y2="70.6" stroke="hsl(271 66% 56%)" stroke-width="0.8" opacity="0.7"/><line x1="78.8" y1="41.2" x2="16.5" y2="65.2" stroke="hsl(183 62% 68%)" stroke-width="0.8" opacity="0.7"/><circle cx="64.0" cy="61.0" r="3.1" fill="hsl(231 74% 66%)"/><circle cx="60.6" cy="72.7" r="1.5" fill="hsl(183 62% 68%)"/><circle cx="41.9" cy="70.6" r="2.9" fill="hsl(271 66% 56%)"/><circle cx="16.5" cy="65.2" r="2.8" fill="hsl(271 66% 56%)"/><circle cx="31.4" cy="38.9" r="1.8" fill="hsl(271 66% 56%)"/><circle cx="36.6" cy="23.2" r="2.3" fill="hsl(271 66% 56%)"/><circle cx="59.2" cy="31.7" r="3.1" fill="hsl(183 62% 68%)"/><circle cx="78.8" cy="41.2" r="1.7" fill="hsl(271 66% 56%)"/><circle cx="49.2" cy="55.0" r="4" fill="hsl(271 74% 82%)"/></svg><rect x="826" y="178" width="150" height="150" rx="8" fill="#141318" stroke="#2a2832"/><svg x="826" y="178" width="150" height="150" viewBox="0 0 100 100"><circle cx="50" cy="50" r="46.5" fill="none" stroke="hsl(7 60% 55%)" stroke-width="0.8" opacity="0.3"/><polygon points="53.5,80.0 26.8,81.4 20.2,54.1 51.7,14.7 57.9,32.6 67.6,50.6" fill="hsl(7 60% 52% / 0.16)" stroke="hsl(7 74% 66%)" stroke-width="1.4" stroke-linejoin="round"/><line x1="53.5" y1="80.0" x2="57.9" y2="32.6" stroke="hsl(319 62% 68%)" stroke-width="0.8" opacity="0.7"/><line x1="26.8" y1="81.4" x2="67.6" y2="50.6" stroke="hsl(319 62% 68%)" stroke-width="0.8" opacity="0.7"/><line x1="20.2" y1="54.1" x2="53.5" y2="80.0" stroke="hsl(319 62% 68%)" stroke-width="0.8" opacity="0.7"/><line x1="51.7" y1="14.7" x2="26.8" y2="81.4" stroke="hsl(7 74% 66%)" stroke-width="0.8" opacity="0.7"/><line x1="57.9" y1="32.6" x2="20.2" y2="54.1" stroke="hsl(47 66% 56%)" stroke-width="0.8" opacity="0.7"/><line x1="67.6" y1="50.6" x2="51.7" y2="14.7" stroke="hsl(319 62% 68%)" stroke-width="0.8" opacity="0.7"/><circle cx="53.5" cy="80.0" r="3.2" fill="hsl(7 74% 66%)"/><circle cx="26.8" cy="81.4" r="1.7" fill="hsl(7 74% 66%)"/><circle cx="20.2" cy="54.1" r="2.8" fill="hsl(7 74% 66%)"/><circle cx="51.7" cy="14.7" r="2.7" fill="hsl(7 74% 66%)"/><circle cx="57.9" cy="32.6" r="1.5" fill="hsl(47 66% 56%)"/><circle cx="67.6" cy="50.6" r="2.1" fill="hsl(319 62% 68%)"/><circle cx="51.6" cy="53.9" r="3" fill="hsl(47 74% 82%)"/></svg><rect x="16" y="340" width="150" height="150" rx="8" fill="#141318" stroke="#2a2832"/><svg x="16" y="340" width="150" height="150" viewBox="0 0 100 100"><circle cx="50" cy="50" r="46.5" fill="none" stroke="hsl(50 60% 55%)" stroke-width="0.8" opacity="0.3"/><polygon points="74.2,51.8 67.3,68.0 59.7,83.5 38.5,71.6 24.8,62.6 32.4,46.9 37.2,39.0 44.1,21.0 62.4,27.8 67.0,38.1" fill="hsl(50 60% 52% / 0.16)" stroke="hsl(50 74% 66%)" stroke-width="1.4" stroke-linejoin="round"/><line x1="74.2" y1="51.8" x2="38.5" y2="71.6" stroke="hsl(90 66% 56%)" stroke-width="0.8" opacity="0.7"/><line x1="67.3" y1="68.0" x2="24.8" y2="62.6" stroke="hsl(2 62% 68%)" stroke-width="0.8" opacity="0.7"/><line x1="59.7" y1="83.5" x2="32.4" y2="46.9" stroke="hsl(90 66% 56%)" stroke-width="0.8" opacity="0.7"/><line x1="38.5" y1="71.6" x2="37.2" y2="39.0" stroke="hsl(90 66% 56%)" stroke-width="0.8" opacity="0.7"/><line x1="24.8" y1="62.6" x2="44.1" y2="21.0" stroke="hsl(2 62% 68%)" stroke-width="0.8" opacity="0.7"/><line x1="32.4" y1="46.9" x2="62.4" y2="27.8" stroke="hsl(50 74% 66%)" stroke-width="0.8" opacity="0.7"/><line x1="37.2" y1="39.0" x2="67.0" y2="38.1" stroke="hsl(50 74% 66%)" stroke-width="0.8" opacity="0.7"/><line x1="44.1" y1="21.0" x2="74.2" y2="51.8" stroke="hsl(2 62% 68%)" stroke-width="0.8" opacity="0.7"/><line x1="62.4" y1="27.8" x2="67.3" y2="68.0" stroke="hsl(2 62% 68%)" stroke-width="0.8" opacity="0.7"/><line x1="67.0" y1="38.1" x2="59.7" y2="83.5" stroke="hsl(90 66% 56%)" stroke-width="0.8" opacity="0.7"/><circle cx="74.2" cy="51.8" r="1.7" fill="hsl(90 66% 56%)"/><circle cx="67.3" cy="68.0" r="2.1" fill="hsl(2 62% 68%)"/><circle cx="59.7" cy="83.5" r="2.5" fill="hsl(90 66% 56%)"/><circle cx="38.5" cy="71.6" r="1.6" fill="hsl(50 74% 66%)"/><circle cx="24.8" cy="62.6" r="1.9" fill="hsl(50 74% 66%)"/><circle cx="32.4" cy="46.9" r="1.8" fill="hsl(50 74% 66%)"/><circle cx="37.2" cy="39.0" r="1.5" fill="hsl(2 62% 68%)"/><circle cx="44.1" cy="21.0" r="2.4" fill="hsl(50 74% 66%)"/><circle cx="62.4" cy="27.8" r="2.7" fill="hsl(50 74% 66%)"/><circle cx="67.0" cy="38.1" r="2.2" fill="hsl(50 74% 66%)"/><circle cx="51.8" cy="46.3" r="4" fill="hsl(90 74% 82%)"/></svg><rect x="178" y="340" width="150" height="150" rx="8" fill="#141318" stroke="#2a2832"/><svg x="178" y="340" width="150" height="150" viewBox="0 0 100 100"><circle cx="50" cy="50" r="46.5" fill="none" stroke="hsl(212 60% 55%)" stroke-width="0.8" opacity="0.3"/><polygon points="71.7,40.0 68.6,61.3 55.7,65.7 49.7,71.3 39.1,59.3 27.5,51.9 34.9,39.9 32.6,34.2 48.0,34.5 63.4,36.7" fill="hsl(212 60% 52% / 0.16)" stroke="hsl(212 74% 66%)" stroke-width="1.4" stroke-linejoin="round"/><line x1="71.7" y1="40.0" x2="32.6" y2="34.2" stroke="hsl(164 62% 68%)" stroke-width="0.8" opacity="0.7"/><line x1="68.6" y1="61.3" x2="48.0" y2="34.5" stroke="hsl(252 66% 56%)" stroke-width="0.8" opacity="0.7"/><line x1="55.7" y1="65.7" x2="63.4" y2="36.7" stroke="hsl(164 62% 68%)" stroke-width="0.8" opacity="0.7"/><line x1="49.7" y1="71.3" x2="71.7" y2="40.0" stroke="hsl(252 66% 56%)" stroke-width="0.8" opacity="0.7"/><line x1="39.1" y1="59.3" x2="68.6" y2="61.3" stroke="hsl(164 62% 68%)" stroke-width="0.8" opacity="0.7"/><line x1="27.5" y1="51.9" x2="55.7" y2="65.7" stroke="hsl(212 74% 66%)" stroke-width="0.8" opacity="0.7"/><line x1="34.9" y1="39.9" x2="49.7" y2="71.3" stroke="hsl(164 62% 68%)" stroke-width="0.8" opacity="0.7"/><line x1="32.6" y1="34.2" x2="39.1" y2="59.3" stroke="hsl(212 74% 66%)" stroke-width="0.8" opacity="0.7"/><line x1="48.0" y1="34.5" x2="27.5" y2="51.9" stroke="hsl(212 74% 66%)" stroke-width="0.8" opacity="0.7"/><line x1="63.4" y1="36.7" x2="34.9" y2="39.9" stroke="hsl(164 62% 68%)" stroke-width="0.8" opacity="0.7"/><circle cx="71.7" cy="40.0" r="2.2" fill="hsl(164 62% 68%)"/><circle cx="68.6" cy="61.3" r="2.0" fill="hsl(212 74% 66%)"/><circle cx="55.7" cy="65.7" r="2.2" fill="hsl(164 62% 68%)"/><circle cx="49.7" cy="71.3" r="2.9" fill="hsl(252 66% 56%)"/><circle cx="39.1" cy="59.3" r="1.5" fill="hsl(252 66% 56%)"/><circle cx="27.5" cy="51.9" r="2.5" fill="hsl(252 66% 56%)"/><circle cx="34.9" cy="39.9" r="1.7" fill="hsl(164 62% 68%)"/><circle cx="32.6" cy="34.2" r="2.2" fill="hsl(164 62% 68%)"/><circle cx="48.0" cy="34.5" r="1.8" fill="hsl(164 62% 68%)"/><circle cx="63.4" cy="36.7" r="2.6" fill="hsl(212 74% 66%)"/><circle cx="51.3" cy="46.7" r="3" fill="hsl(252 74% 82%)"/></svg><rect x="340" y="340" width="150" height="150" rx="8" fill="#141318" stroke="#2a2832"/><svg x="340" y="340" width="150" height="150" viewBox="0 0 100 100"><circle cx="50" cy="50" r="46.5" fill="none" stroke="hsl(141 60% 55%)" stroke-width="0.8" opacity="0.3"/><polygon points="67.6,53.6 61.9,72.4 54.0,67.0 36.9,74.7 30.8,64.7 15.7,48.3 34.0,33.6 34.0,24.9 54.1,22.4 66.3,31.8 65.3,45.2" fill="hsl(141 60% 52% / 0.16)" stroke="hsl(141 74% 66%)" stroke-width="1.4" stroke-linejoin="round"/><line x1="67.6" y1="53.6" x2="54.1" y2="22.4" stroke="hsl(141 74% 66%)" stroke-width="0.8" opacity="0.7"/><line x1="61.9" y1="72.4" x2="66.3" y2="31.8" stroke="hsl(93 62% 68%)" stroke-width="0.8" opacity="0.7"/><line x1="54.0" y1="67.0" x2="65.3" y2="45.2" stroke="hsl(141 74% 66%)" stroke-width="0.8" opacity="0.7"/><line x1="36.9" y1="74.7" x2="67.6" y2="53.6" stroke="hsl(141 74% 66%)" stroke-width="0.8" opacity="0.7"/><line x1="30.8" y1="64.7" x2="61.9" y2="72.4" stroke="hsl(141 74% 66%)" stroke-width="0.8" opacity="0.7"/><line x1="15.7" y1="48.3" x2="54.0" y2="67.0" stroke="hsl(141 74% 66%)" stroke-width="0.8" opacity="0.7"/><line x1="34.0" y1="33.6" x2="36.9" y2="74.7" stroke="hsl(93 62% 68%)" stroke-width="0.8" opacity="0.7"/><line x1="34.0" y1="24.9" x2="30.8" y2="64.7" stroke="hsl(141 74% 66%)" stroke-width="0.8" opacity="0.7"/><line x1="54.1" y1="22.4" x2="15.7" y2="48.3" stroke="hsl(93 62% 68%)" stroke-width="0.8" opacity="0.7"/><line x1="66.3" y1="31.8" x2="34.0" y2="33.6" stroke="hsl(181 66% 56%)" stroke-width="0.8" opacity="0.7"/><line x1="65.3" y1="45.2" x2="34.0" y2="24.9" stroke="hsl(181 66% 56%)" stroke-width="0.8" opacity="0.7"/><circle cx="67.6" cy="53.6" r="2.3" fill="hsl(181 66% 56%)"/><circle cx="61.9" cy="72.4" r="1.7" fill="hsl(181 66% 56%)"/><circle cx="54.0" cy="67.0" r="2.7" fill="hsl(181 66% 56%)"/><circle cx="36.9" cy="74.7" r="3.0" fill="hsl(141 74% 66%)"/><circle cx="30.8" cy="64.7" r="1.4" fill="hsl(93 62% 68%)"/><circle cx="15.7" cy="48.3" r="1.6" fill="hsl(141 74% 66%)"/><circle cx="34.0" cy="33.6" r="2.8" fill="hsl(93 62% 68%)"/><circle cx="34.0" cy="24.9" r="2.1" fill="hsl(181 66% 56%)"/><circle cx="54.1" cy="22.4" r="2.0" fill="hsl(181 66% 56%)"/><circle cx="66.3" cy="31.8" r="2.4" fill="hsl(141 74% 66%)"/><circle cx="65.3" cy="45.2" r="2.8" fill="hsl(93 62% 68%)"/><circle cx="49.4" cy="51.5" r="3" fill="hsl(181 74% 82%)"/></svg><rect x="502" y="340" width="150" height="150" rx="8" fill="#141318" stroke="#2a2832"/><svg x="502" y="340" width="150" height="150" viewBox="0 0 100 100"><circle cx="50" cy="50" r="46.5" fill="none" stroke="hsl(128 60% 55%)" stroke-width="0.8" opacity="0.3"/><polygon points="49.6,79.5 36.8,63.0 27.0,58.2 22.5,35.0 37.5,26.5 55.5,24.3 59.4,35.5 78.8,42.7 80.3,58.3 64.8,68.2" fill="hsl(128 60% 52% / 0.16)" stroke="hsl(128 74% 66%)" stroke-width="1.4" stroke-linejoin="round"/><line x1="49.6" y1="79.5" x2="37.5" y2="26.5" stroke="hsl(128 74% 66%)" stroke-width="0.8" opacity="0.7"/><line x1="36.8" y1="63.0" x2="55.5" y2="24.3" stroke="hsl(80 62% 68%)" stroke-width="0.8" opacity="0.7"/><line x1="27.0" y1="58.2" x2="59.4" y2="35.5" stroke="hsl(168 66% 56%)" stroke-width="0.8" opacity="0.7"/><line x1="22.5" y1="35.0" x2="78.8" y2="42.7" stroke="hsl(80 62% 68%)" stroke-width="0.8" opacity="0.7"/><line x1="37.5" y1="26.5" x2="80.3" y2="58.3" stroke="hsl(168 66% 56%)" stroke-width="0.8" opacity="0.7"/><line x1="55.5" y1="24.3" x2="64.8" y2="68.2" stroke="hsl(80 62% 68%)" stroke-width="0.8" opacity="0.7"/><line x1="59.4" y1="35.5" x2="49.6" y2="79.5" stroke="hsl(128 74% 66%)" stroke-width="0.8" opacity="0.7"/><line x1="78.8" y1="42.7" x2="36.8" y2="63.0" stroke="hsl(168 66% 56%)" stroke-width="0.8" opacity="0.7"/><line x1="80.3" y1="58.3" x2="27.0" y2="58.2" stroke="hsl(168 66% 56%)" stroke-width="0.8" opacity="0.7"/><line x1="64.8" y1="68.2" x2="22.5" y2="35.0" stroke="hsl(128 74% 66%)" stroke-width="0.8" opacity="0.7"/><circle cx="49.6" cy="79.5" r="2.5" fill="hsl(128 74% 66%)"/><circle cx="36.8" cy="63.0" r="2.8" fill="hsl(168 66% 56%)"/><circle cx="27.0" cy="58.2" r="1.9" fill="hsl(168 66% 56%)"/><circle cx="22.5" cy="35.0" r="2.5" fill="hsl(80 62% 68%)"/><circle cx="37.5" cy="26.5" r="2.8" fill="hsl(128 74% 66%)"/><circle cx="55.5" cy="24.3" r="2.9" fill="hsl(168 66% 56%)"/><circle cx="59.4" cy="35.5" r="2.5" fill="hsl(168 66% 56%)"/><circle cx="78.8" cy="42.7" r="2.0" fill="hsl(128 74% 66%)"/><circle cx="80.3" cy="58.3" r="2.4" fill="hsl(168 66% 56%)"/><circle cx="64.8" cy="68.2" r="2.9" fill="hsl(168 66% 56%)"/><circle cx="51.3" cy="54.2" r="4" fill="hsl(168 74% 82%)"/></svg><rect x="664" y="340" width="150" height="150" rx="8" fill="#141318" stroke="#2a2832"/><svg x="664" y="340" width="150" height="150" viewBox="0 0 100 100"><circle cx="50" cy="50" r="46.5" fill="none" stroke="hsl(236 60% 55%)" stroke-width="0.8" opacity="0.3"/><polygon points="47.4,25.0 84.7,57.3 46.1,67.8 30.7,64.4 28.9,43.1" fill="hsl(236 60% 52% / 0.16)" stroke="hsl(236 74% 66%)" stroke-width="1.4" stroke-linejoin="round"/><line x1="47.4" y1="25.0" x2="30.7" y2="64.4" stroke="hsl(236 74% 66%)" stroke-width="0.8" opacity="0.7"/><line x1="84.7" y1="57.3" x2="28.9" y2="43.1" stroke="hsl(188 62% 68%)" stroke-width="0.8" opacity="0.7"/><line x1="46.1" y1="67.8" x2="47.4" y2="25.0" stroke="hsl(236 74% 66%)" stroke-width="0.8" opacity="0.7"/><line x1="30.7" y1="64.4" x2="84.7" y2="57.3" stroke="hsl(276 66% 56%)" stroke-width="0.8" opacity="0.7"/><line x1="28.9" y1="43.1" x2="46.1" y2="67.8" stroke="hsl(188 62% 68%)" stroke-width="0.8" opacity="0.7"/><circle cx="47.4" cy="25.0" r="1.5" fill="hsl(236 74% 66%)"/><circle cx="84.7" cy="57.3" r="2.8" fill="hsl(276 66% 56%)"/><circle cx="46.1" cy="67.8" r="2.3" fill="hsl(188 62% 68%)"/><circle cx="30.7" cy="64.4" r="2.2" fill="hsl(188 62% 68%)"/><circle cx="28.9" cy="43.1" r="2.7" fill="hsl(276 66% 56%)"/><circle cx="46.7" cy="53.6" r="2" fill="hsl(276 74% 82%)"/></svg><rect x="826" y="340" width="150" height="150" rx="8" fill="#141318" stroke="#2a2832"/><svg x="826" y="340" width="150" height="150" viewBox="0 0 100 100"><circle cx="50" cy="50" r="46.5" fill="none" stroke="hsl(305 60% 55%)" stroke-width="0.8" opacity="0.3"/><polygon points="20.5,60.2 38.1,36.4 44.5,34.4 64.1,29.4 85.9,43.6 68.5,58.5 48.8,75.1 36.4,71.4" fill="hsl(305 60% 52% / 0.16)" stroke="hsl(305 74% 66%)" stroke-width="1.4" stroke-linejoin="round"/><line x1="20.5" y1="60.2" x2="44.5" y2="34.4" stroke="hsl(305 74% 66%)" stroke-width="0.8" opacity="0.7"/><line x1="38.1" y1="36.4" x2="64.1" y2="29.4" stroke="hsl(257 62% 68%)" stroke-width="0.8" opacity="0.7"/><line x1="44.5" y1="34.4" x2="85.9" y2="43.6" stroke="hsl(345 66% 56%)" stroke-width="0.8" opacity="0.7"/><line x1="64.1" y1="29.4" x2="68.5" y2="58.5" stroke="hsl(305 74% 66%)" stroke-width="0.8" opacity="0.7"/><line x1="85.9" y1="43.6" x2="48.8" y2="75.1" stroke="hsl(257 62% 68%)" stroke-width="0.8" opacity="0.7"/><line x1="68.5" y1="58.5" x2="36.4" y2="71.4" stroke="hsl(257 62% 68%)" stroke-width="0.8" opacity="0.7"/><line x1="48.8" y1="75.1" x2="20.5" y2="60.2" stroke="hsl(345 66% 56%)" stroke-width="0.8" opacity="0.7"/><line x1="36.4" y1="71.4" x2="38.1" y2="36.4" stroke="hsl(257 62% 68%)" stroke-width="0.8" opacity="0.7"/><circle cx="20.5" cy="60.2" r="3.1" fill="hsl(257 62% 68%)"/><circle cx="38.1" cy="36.4" r="1.5" fill="hsl(305 74% 66%)"/><circle cx="44.5" cy="34.4" r="3.0" fill="hsl(345 66% 56%)"/><circle cx="64.1" cy="29.4" r="2.2" fill="hsl(345 66% 56%)"/><circle cx="85.9" cy="43.6" r="2.3" fill="hsl(345 66% 56%)"/><circle cx="68.5" cy="58.5" r="2.6" fill="hsl(345 66% 56%)"/><circle cx="48.8" cy="75.1" r="1.8" fill="hsl(345 66% 56%)"/><circle cx="36.4" cy="71.4" r="2.3" fill="hsl(345 66% 56%)"/><circle cx="45.0" cy="51.0" r="2" fill="hsl(345 74% 82%)"/></svg><rect x="16" y="502" width="150" height="150" rx="8" fill="#141318" stroke="#2a2832"/><svg x="16" y="502" width="150" height="150" viewBox="0 0 100 100"><circle cx="50" cy="50" r="46.5" fill="none" stroke="hsl(32 60% 55%)" stroke-width="0.8" opacity="0.3"/><polygon points="28.0,75.1 31.4,63.6 13.6,45.0 31.6,35.7 37.4,21.8 62.1,19.6 77.0,31.9 68.5,52.1 65.9,58.4 69.1,71.7 45.4,73.6" fill="hsl(32 60% 52% / 0.16)" stroke="hsl(32 74% 66%)" stroke-width="1.4" stroke-linejoin="round"/><line x1="28.0" y1="75.1" x2="31.6" y2="35.7" stroke="hsl(32 74% 66%)" stroke-width="0.8" opacity="0.7"/><line x1="31.4" y1="63.6" x2="37.4" y2="21.8" stroke="hsl(72 66% 56%)" stroke-width="0.8" opacity="0.7"/><line x1="13.6" y1="45.0" x2="62.1" y2="19.6" stroke="hsl(72 66% 56%)" stroke-width="0.8" opacity="0.7"/><line x1="31.6" y1="35.7" x2="77.0" y2="31.9" stroke="hsl(72 66% 56%)" stroke-width="0.8" opacity="0.7"/><line x1="37.4" y1="21.8" x2="68.5" y2="52.1" stroke="hsl(344 62% 68%)" stroke-width="0.8" opacity="0.7"/><line x1="62.1" y1="19.6" x2="65.9" y2="58.4" stroke="hsl(72 66% 56%)" stroke-width="0.8" opacity="0.7"/><line x1="77.0" y1="31.9" x2="69.1" y2="71.7" stroke="hsl(344 62% 68%)" stroke-width="0.8" opacity="0.7"/><line x1="68.5" y1="52.1" x2="45.4" y2="73.6" stroke="hsl(344 62% 68%)" stroke-width="0.8" opacity="0.7"/><line x1="65.9" y1="58.4" x2="28.0" y2="75.1" stroke="hsl(72 66% 56%)" stroke-width="0.8" opacity="0.7"/><line x1="69.1" y1="71.7" x2="31.4" y2="63.6" stroke="hsl(344 62% 68%)" stroke-width="0.8" opacity="0.7"/><line x1="45.4" y1="73.6" x2="13.6" y2="45.0" stroke="hsl(72 66% 56%)" stroke-width="0.8" opacity="0.7"/><circle cx="28.0" cy="75.1" r="1.5" fill="hsl(72 66% 56%)"/><circle cx="31.4" cy="63.6" r="2.8" fill="hsl(32 74% 66%)"/><circle cx="13.6" cy="45.0" r="2.7" fill="hsl(72 66% 56%)"/><circle cx="31.6" cy="35.7" r="1.7" fill="hsl(32 74% 66%)"/><circle cx="37.4" cy="21.8" r="2.4" fill="hsl(32 74% 66%)"/><circle cx="62.1" cy="19.6" r="3.0" fill="hsl(72 66% 56%)"/><circle cx="77.0" cy="31.9" r="2.5" fill="hsl(344 62% 68%)"/><circle cx="68.5" cy="52.1" r="2.3" fill="hsl(32 74% 66%)"/><circle cx="65.9" cy="58.4" r="2.2" fill="hsl(72 66% 56%)"/><circle cx="69.1" cy="71.7" r="2.0" fill="hsl(344 62% 68%)"/><circle cx="45.4" cy="73.6" r="3.1" fill="hsl(32 74% 66%)"/><circle cx="52.6" cy="50.4" r="2" fill="hsl(72 74% 82%)"/></svg><rect x="178" y="502" width="150" height="150" rx="8" fill="#141318" stroke="#2a2832"/><svg x="178" y="502" width="150" height="150" viewBox="0 0 100 100"><circle cx="50" cy="50" r="46.5" fill="none" stroke="hsl(223 60% 55%)" stroke-width="0.8" opacity="0.3"/><polygon points="36.9,71.7 28.4,64.3 17.4,49.0 26.8,30.4 37.9,25.2 56.4,34.8 74.3,35.1 78.9,54.6 62.5,63.4 60.6,77.5" fill="hsl(223 60% 52% / 0.16)" stroke="hsl(223 74% 66%)" stroke-width="1.4" stroke-linejoin="round"/><line x1="36.9" y1="71.7" x2="26.8" y2="30.4" stroke="hsl(263 66% 56%)" stroke-width="0.8" opacity="0.7"/><line x1="28.4" y1="64.3" x2="37.9" y2="25.2" stroke="hsl(263 66% 56%)" stroke-width="0.8" opacity="0.7"/><line x1="17.4" y1="49.0" x2="56.4" y2="34.8" stroke="hsl(223 74% 66%)" stroke-width="0.8" opacity="0.7"/><line x1="26.8" y1="30.4" x2="74.3" y2="35.1" stroke="hsl(175 62% 68%)" stroke-width="0.8" opacity="0.7"/><line x1="37.9" y1="25.2" x2="78.9" y2="54.6" stroke="hsl(175 62% 68%)" stroke-width="0.8" opacity="0.7"/><line x1="56.4" y1="34.8" x2="62.5" y2="63.4" stroke="hsl(223 74% 66%)" stroke-width="0.8" opacity="0.7"/><line x1="74.3" y1="35.1" x2="60.6" y2="77.5" stroke="hsl(223 74% 66%)" stroke-width="0.8" opacity="0.7"/><line x1="78.9" y1="54.6" x2="36.9" y2="71.7" stroke="hsl(175 62% 68%)" stroke-width="0.8" opacity="0.7"/><line x1="62.5" y1="63.4" x2="28.4" y2="64.3" stroke="hsl(223 74% 66%)" stroke-width="0.8" opacity="0.7"/><line x1="60.6" y1="77.5" x2="17.4" y2="49.0" stroke="hsl(223 74% 66%)" stroke-width="0.8" opacity="0.7"/><circle cx="36.9" cy="71.7" r="1.5" fill="hsl(263 66% 56%)"/><circle cx="28.4" cy="64.3" r="3.0" fill="hsl(175 62% 68%)"/><circle cx="17.4" cy="49.0" r="3.2" fill="hsl(263 66% 56%)"/><circle cx="26.8" cy="30.4" r="3.2" fill="hsl(175 62% 68%)"/><circle cx="37.9" cy="25.2" r="1.7" fill="hsl(263 66% 56%)"/><circle cx="56.4" cy="34.8" r="2.8" fill="hsl(223 74% 66%)"/><circle cx="74.3" cy="35.1" r="3.2" fill="hsl(175 62% 68%)"/><circle cx="78.9" cy="54.6" r="2.6" fill="hsl(223 74% 66%)"/><circle cx="62.5" cy="63.4" r="1.8" fill="hsl(223 74% 66%)"/><circle cx="60.6" cy="77.5" r="1.7" fill="hsl(263 66% 56%)"/><circle cx="53.5" cy="47.9" r="3" fill="hsl(263 74% 82%)"/></svg><rect x="340" y="502" width="150" height="150" rx="8" fill="#141318" stroke="#2a2832"/><svg x="340" y="502" width="150" height="150" viewBox="0 0 100 100"><circle cx="50" cy="50" r="46.5" fill="none" stroke="hsl(112 60% 55%)" stroke-width="0.8" opacity="0.3"/><polygon points="47.6,29.1 86.0,46.2 60.0,69.5 45.9,79.9 14.2,35.9" fill="hsl(112 60% 52% / 0.16)" stroke="hsl(112 74% 66%)" stroke-width="1.4" stroke-linejoin="round"/><line x1="47.6" y1="29.1" x2="45.9" y2="79.9" stroke="hsl(152 66% 56%)" stroke-width="0.8" opacity="0.7"/><line x1="86.0" y1="46.2" x2="14.2" y2="35.9" stroke="hsl(112 74% 66%)" stroke-width="0.8" opacity="0.7"/><line x1="60.0" y1="69.5" x2="47.6" y2="29.1" stroke="hsl(64 62% 68%)" stroke-width="0.8" opacity="0.7"/><line x1="45.9" y1="79.9" x2="86.0" y2="46.2" stroke="hsl(64 62% 68%)" stroke-width="0.8" opacity="0.7"/><line x1="14.2" y1="35.9" x2="60.0" y2="69.5" stroke="hsl(112 74% 66%)" stroke-width="0.8" opacity="0.7"/><circle cx="47.6" cy="29.1" r="2.1" fill="hsl(152 66% 56%)"/><circle cx="86.0" cy="46.2" r="2.1" fill="hsl(112 74% 66%)"/><circle cx="60.0" cy="69.5" r="1.6" fill="hsl(64 62% 68%)"/><circle cx="45.9" cy="79.9" r="3.1" fill="hsl(112 74% 66%)"/><circle cx="14.2" cy="35.9" r="2.7" fill="hsl(64 62% 68%)"/><circle cx="53.3" cy="54.5" r="3" fill="hsl(152 74% 82%)"/></svg><rect x="502" y="502" width="150" height="150" rx="8" fill="#141318" stroke="#2a2832"/><svg x="502" y="502" width="150" height="150" viewBox="0 0 100 100"><circle cx="50" cy="50" r="46.5" fill="none" stroke="hsl(42 60% 55%)" stroke-width="0.8" opacity="0.3"/><polygon points="30.7,78.8 34.4,64.5 32.9,46.8 37.6,15.3 65.2,33.0 68.5,47.6 56.7,65.4" fill="hsl(42 60% 52% / 0.16)" stroke="hsl(42 74% 66%)" stroke-width="1.4" stroke-linejoin="round"/><line x1="30.7" y1="78.8" x2="65.2" y2="33.0" stroke="hsl(42 74% 66%)" stroke-width="0.8" opacity="0.7"/><line x1="34.4" y1="64.5" x2="68.5" y2="47.6" stroke="hsl(82 66% 56%)" stroke-width="0.8" opacity="0.7"/><line x1="32.9" y1="46.8" x2="56.7" y2="65.4" stroke="hsl(42 74% 66%)" stroke-width="0.8" opacity="0.7"/><line x1="37.6" y1="15.3" x2="30.7" y2="78.8" stroke="hsl(82 66% 56%)" stroke-width="0.8" opacity="0.7"/><line x1="65.2" y1="33.0" x2="34.4" y2="64.5" stroke="hsl(42 74% 66%)" stroke-width="0.8" opacity="0.7"/><line x1="68.5" y1="47.6" x2="32.9" y2="46.8" stroke="hsl(42 74% 66%)" stroke-width="0.8" opacity="0.7"/><line x1="56.7" y1="65.4" x2="37.6" y2="15.3" stroke="hsl(82 66% 56%)" stroke-width="0.8" opacity="0.7"/><circle cx="30.7" cy="78.8" r="1.7" fill="hsl(42 74% 66%)"/><circle cx="34.4" cy="64.5" r="2.9" fill="hsl(42 74% 66%)"/><circle cx="32.9" cy="46.8" r="2.8" fill="hsl(42 74% 66%)"/><circle cx="37.6" cy="15.3" r="2.7" fill="hsl(42 74% 66%)"/><circle cx="65.2" cy="33.0" r="2.3" fill="hsl(82 66% 56%)"/><circle cx="68.5" cy="47.6" r="2.1" fill="hsl(82 66% 56%)"/><circle cx="56.7" cy="65.4" r="1.9" fill="hsl(42 74% 66%)"/><circle cx="48.3" cy="46.3" r="4" fill="hsl(82 74% 82%)"/></svg><rect x="664" y="502" width="150" height="150" rx="8" fill="#141318" stroke="#2a2832"/><svg x="664" y="502" width="150" height="150" viewBox="0 0 100 100"><circle cx="50" cy="50" r="46.5" fill="none" stroke="hsl(221 60% 55%)" stroke-width="0.8" opacity="0.3"/><polygon points="32.3,34.6 48.8,28.2 67.6,39.3 63.8,52.7 65.1,73.6 38.5,74.9 35.8,44.8" fill="hsl(221 60% 52% / 0.16)" stroke="hsl(221 74% 66%)" stroke-width="1.4" stroke-linejoin="round"/><line x1="32.3" y1="34.6" x2="67.6" y2="39.3" stroke="hsl(173 62% 68%)" stroke-width="0.8" opacity="0.7"/><line x1="48.8" y1="28.2" x2="63.8" y2="52.7" stroke="hsl(173 62% 68%)" stroke-width="0.8" opacity="0.7"/><line x1="67.6" y1="39.3" x2="65.1" y2="73.6" stroke="hsl(173 62% 68%)" stroke-width="0.8" opacity="0.7"/><line x1="63.8" y1="52.7" x2="38.5" y2="74.9" stroke="hsl(261 66% 56%)" stroke-width="0.8" opacity="0.7"/><line x1="65.1" y1="73.6" x2="35.8" y2="44.8" stroke="hsl(221 74% 66%)" stroke-width="0.8" opacity="0.7"/><line x1="38.5" y1="74.9" x2="32.3" y2="34.6" stroke="hsl(221 74% 66%)" stroke-width="0.8" opacity="0.7"/><line x1="35.8" y1="44.8" x2="48.8" y2="28.2" stroke="hsl(221 74% 66%)" stroke-width="0.8" opacity="0.7"/><circle cx="32.3" cy="34.6" r="2.2" fill="hsl(221 74% 66%)"/><circle cx="48.8" cy="28.2" r="1.9" fill="hsl(173 62% 68%)"/><circle cx="67.6" cy="39.3" r="2.0" fill="hsl(221 74% 66%)"/><circle cx="63.8" cy="52.7" r="1.9" fill="hsl(221 74% 66%)"/><circle cx="65.1" cy="73.6" r="1.9" fill="hsl(173 62% 68%)"/><circle cx="38.5" cy="74.9" r="1.7" fill="hsl(221 74% 66%)"/><circle cx="35.8" cy="44.8" r="1.8" fill="hsl(221 74% 66%)"/><circle cx="46.0" cy="53.0" r="4" fill="hsl(261 74% 82%)"/></svg><rect x="826" y="502" width="150" height="150" rx="8" fill="#141318" stroke="#2a2832"/><svg x="826" y="502" width="150" height="150" viewBox="0 0 100 100"><circle cx="50" cy="50" r="46.5" fill="none" stroke="hsl(324 60% 55%)" stroke-width="0.8" opacity="0.3"/><polygon points="18.5,59.9 38.5,26.7 53.0,17.7 80.2,33.9 81.7,68.2 39.1,66.1" fill="hsl(324 60% 52% / 0.16)" stroke="hsl(324 74% 66%)" stroke-width="1.4" stroke-linejoin="round"/><line x1="18.5" y1="59.9" x2="81.7" y2="68.2" stroke="hsl(324 74% 66%)" stroke-width="0.8" opacity="0.7"/><line x1="38.5" y1="26.7" x2="39.1" y2="66.1" stroke="hsl(4 66% 56%)" stroke-width="0.8" opacity="0.7"/><line x1="53.0" y1="17.7" x2="18.5" y2="59.9" stroke="hsl(4 66% 56%)" stroke-width="0.8" opacity="0.7"/><line x1="80.2" y1="33.9" x2="38.5" y2="26.7" stroke="hsl(4 66% 56%)" stroke-width="0.8" opacity="0.7"/><line x1="81.7" y1="68.2" x2="53.0" y2="17.7" stroke="hsl(276 62% 68%)" stroke-width="0.8" opacity="0.7"/><line x1="39.1" y1="66.1" x2="80.2" y2="33.9" stroke="hsl(4 66% 56%)" stroke-width="0.8" opacity="0.7"/><circle cx="18.5" cy="59.9" r="2.7" fill="hsl(276 62% 68%)"/><circle cx="38.5" cy="26.7" r="2.2" fill="hsl(4 66% 56%)"/><circle cx="53.0" cy="17.7" r="1.5" fill="hsl(4 66% 56%)"/><circle cx="80.2" cy="33.9" r="2.2" fill="hsl(276 62% 68%)"/><circle cx="81.7" cy="68.2" r="2.4" fill="hsl(324 74% 66%)"/><circle cx="39.1" cy="66.1" r="1.6" fill="hsl(324 74% 66%)"/><circle cx="47.9" cy="45.3" r="3" fill="hsl(4 74% 82%)"/></svg></svg>
