<svg xmlns="http://www.w3.org/2000/svg" width="1200" height="630" viewBox="0 0 1200 630"><rect width="1200" height="630" fill="#0b0b0d"/><rect x="90" y="105" width="420" height="420" rx="28" fill="#141318" stroke="#2a2832" stroke-width="2"/><svg x="90" y="105" width="420" height="420" viewBox="0 0 100 100"><circle cx="50" cy="50" r="46.5" fill="none" stroke="hsl(100 60% 55%)" stroke-width="0.8" opacity="0.3"/><polygon points="60.1,67.1 53.6,78.0 38.7,63.3 30.4,53.9 31.9,37.7 53.6,14.3 85.4,31.3 77.4,44.6" fill="hsl(100 60% 52% / 0.16)" stroke="hsl(100 74% 66%)" stroke-width="1.4" stroke-linejoin="round"/><line x1="60.1" y1="67.1" x2="31.9" y2="37.7" stroke="hsl(100 74% 66%)" stroke-width="0.8" opacity="0.7"/><line x1="53.6" y1="78.0" x2="53.6" y2="14.3" stroke="hsl(140 66% 56%)" stroke-width="0.8" opacity="0.7"/><line x1="38.7" y1="63.3" x2="85.4" y2="31.3" stroke="hsl(52 62% 68%)" stroke-width="0.8" opacity="0.7"/><line x1="30.4" y1="53.9" x2="77.4" y2="44.6" stroke="hsl(52 62% 68%)" stroke-width="0.8" opacity="0.7"/><line x1="31.9" y1="37.7" x2="60.1" y2="67.1" stroke="hsl(140 66% 56%)" stroke-width="0.8" opacity="0.7"/><line x1="53.6" y1="14.3" x2="53.6" y2="78.0" stroke="hsl(140 66% 56%)" stroke-width="0.8" opacity="0.7"/><line x1="85.4" y1="31.3" x2="38.7" y2="63.3" stroke="hsl(100 74% 66%)" stroke-width="0.8" opacity="0.7"/><line x1="77.4" y1="44.6" x2="30.4" y2="53.9" stroke="hsl(100 74% 66%)" stroke-width="0.8" opacity="0.7"/><circle cx="60.1" cy="67.1" r="2.6" fill="hsl(100 74% 66%)"/><circle cx="53.6" cy="78.0" r="1.7" fill="hsl(52 62% 68%)"/><circle cx="38.7" cy="63.3" r="2.6" fill="hsl(100 74% 66%)"/><circle cx="30.4" cy="53.9" r="2.1" fill="hsl(52 62% 68%)"/><circle cx="31.9" cy="37.7" r="2.9" fill="hsl(52 62% 68%)"/><circle cx="53.6" cy="14.3" r="2.1" fill="hsl(140 66% 56%)"/><circle cx="85.4" cy="31.3" r="1.6" fill="hsl(52 62% 68%)"/><circle cx="77.4" cy="44.6" r="2.5" fill="hsl(52 62% 68%)"/><circle cx="53.4" cy="46.7" r="2" fill="hsl(140 74% 82%)"/></svg><g transform="translate(580, 250)"><text x="0" y="0" fill="#e8e6e3" font-family="JetBrains Mono, DejaVu Sans Mono, ui-monospace, monospace" font-size="42" font-weight="600" letter-spacing="0.18em">LIB·OF·BABEL</text><text x="0" y="56" fill="#9a968c" font-family="JetBrains Mono, DejaVu Sans Mono, ui-monospace, monospace" font-size="20" font-weight="400"><tspan x="0" dy="0">An infinite gallery of books —</tspan><tspan x="0" dy="28">every page already written.</tspan></text></g></svg>
